<svg width="138" height="39" viewBox="0 0 138 39" fill="none" xmlns="http://www.w3.org/2000/svg">
<path d="M0.52 35C0.450667 35 0.39 34.974 0.338 34.922C0.286 34.87 0.26 34.8093 0.26 34.74C0.26 34.6967 0.264333 34.649 0.273 34.597L3.497 26.186C3.53167 26.0993 3.57933 26.03 3.64 25.978C3.70067 25.926 3.79167 25.9 3.913 25.9H4.797C4.90967 25.9 4.99633 25.926 5.057 25.978C5.12633 26.03 5.17833 26.0993 5.213 26.186L8.424 34.597C8.44133 34.649 8.45 34.6967 8.45 34.74C8.45 34.8093 8.424 34.87 8.372 34.922C8.32 34.974 8.25933 35 8.19 35H7.527C7.423 35 7.345 34.974 7.293 34.922C7.24967 34.87 7.21933 34.8223 7.202 34.779L6.487 32.933H2.223L1.508 34.779C1.49933 34.8223 1.469 34.87 1.417 34.922C1.365 34.974 1.287 35 1.183 35H0.52ZM2.6 31.815H6.11L4.355 27.2L2.6 31.815ZM12.0648 35.13C11.5881 35.13 11.1765 35.0477 10.8298 34.883C10.4831 34.7097 10.1971 34.48 9.97181 34.194C9.75515 33.8993 9.59048 33.5657 9.47781 33.193C9.37381 32.8203 9.31315 32.426 9.29581 32.01C9.28715 31.8713 9.28281 31.7413 9.28281 31.62C9.28281 31.4987 9.28715 31.3687 9.29581 31.23C9.31315 30.8227 9.37381 30.4327 9.47781 30.06C9.59048 29.6873 9.75515 29.3537 9.97181 29.059C10.1971 28.7643 10.4831 28.5347 10.8298 28.37C11.1765 28.1967 11.5881 28.11 12.0648 28.11C12.5761 28.11 13.0008 28.201 13.3388 28.383C13.6768 28.565 13.9541 28.7903 14.1708 29.059V26.069C14.1708 25.9823 14.1968 25.913 14.2488 25.861C14.3095 25.8003 14.3831 25.77 14.4698 25.77H15.0938C15.1805 25.77 15.2498 25.8003 15.3018 25.861C15.3625 25.913 15.3928 25.9823 15.3928 26.069V34.701C15.3928 34.7877 15.3625 34.8613 15.3018 34.922C15.2498 34.974 15.1805 35 15.0938 35H14.5088C14.4135 35 14.3398 34.974 14.2878 34.922C14.2358 34.8613 14.2098 34.7877 14.2098 34.701V34.155C13.9931 34.4323 13.7115 34.6663 13.3648 34.857C13.0181 35.039 12.5848 35.13 12.0648 35.13ZM12.3378 34.077C12.7711 34.077 13.1178 33.9773 13.3778 33.778C13.6378 33.5787 13.8328 33.3273 13.9628 33.024C14.0928 32.712 14.1621 32.3957 14.1708 32.075C14.1795 31.9363 14.1838 31.7717 14.1838 31.581C14.1838 31.3817 14.1795 31.2127 14.1708 31.074C14.1621 30.7707 14.0885 30.4717 13.9498 30.177C13.8198 29.8823 13.6205 29.6397 13.3518 29.449C13.0918 29.2583 12.7538 29.163 12.3378 29.163C11.8958 29.163 11.5448 29.2627 11.2848 29.462C11.0248 29.6527 10.8385 29.9083 10.7258 30.229C10.6131 30.541 10.5481 30.879 10.5308 31.243C10.5221 31.4943 10.5221 31.7457 10.5308 31.997C10.5481 32.361 10.6131 32.7033 10.7258 33.024C10.8385 33.336 11.0248 33.5917 11.2848 33.791C11.5448 33.9817 11.8958 34.077 12.3378 34.077ZM17.6253 35C17.5386 35 17.4649 34.974 17.4043 34.922C17.3523 34.8613 17.3263 34.7877 17.3263 34.701V28.539C17.3263 28.4523 17.3523 28.383 17.4043 28.331C17.4649 28.2703 17.5386 28.24 17.6253 28.24H18.2103C18.2969 28.24 18.3663 28.2703 18.4183 28.331C18.4789 28.383 18.5093 28.4523 18.5093 28.539V28.994C18.7086 28.7253 18.9599 28.513 19.2633 28.357C19.5666 28.1923 19.9306 28.11 20.3553 28.11C21.3346 28.1013 22.0279 28.5 22.4353 29.306C22.6346 28.942 22.9249 28.6517 23.3063 28.435C23.6876 28.2183 24.1209 28.11 24.6063 28.11C25.0569 28.11 25.4643 28.214 25.8283 28.422C26.2009 28.63 26.4913 28.9463 26.6993 29.371C26.9159 29.787 27.0243 30.3113 27.0243 30.944V34.701C27.0243 34.7877 26.9939 34.8613 26.9333 34.922C26.8813 34.974 26.8119 35 26.7253 35H26.1143C26.0276 35 25.9539 34.974 25.8933 34.922C25.8413 34.8613 25.8153 34.7877 25.8153 34.701V31.061C25.8153 30.5757 25.7459 30.1943 25.6073 29.917C25.4686 29.6397 25.2823 29.4447 25.0483 29.332C24.8143 29.2193 24.5586 29.163 24.2813 29.163C24.0559 29.163 23.8263 29.2193 23.5923 29.332C23.3583 29.4447 23.1633 29.6397 23.0073 29.917C22.8599 30.1943 22.7863 30.5757 22.7863 31.061V34.701C22.7863 34.7877 22.7559 34.8613 22.6953 34.922C22.6433 34.974 22.5739 35 22.4873 35H21.8763C21.7896 35 21.7159 34.974 21.6553 34.922C21.6033 34.8613 21.5773 34.7877 21.5773 34.701V31.061C21.5773 30.5757 21.5036 30.1943 21.3563 29.917C21.2089 29.6397 21.0183 29.4447 20.7843 29.332C20.5503 29.2193 20.3033 29.163 20.0433 29.163C19.8179 29.163 19.5883 29.2193 19.3543 29.332C19.1203 29.4447 18.9253 29.6397 18.7693 29.917C18.6219 30.1943 18.5483 30.5713 18.5483 31.048V34.701C18.5483 34.7877 18.5179 34.8613 18.4573 34.922C18.4053 34.974 18.3359 35 18.2493 35H17.6253ZM29.178 35C29.0913 35 29.0177 34.974 28.957 34.922C28.905 34.8613 28.879 34.7877 28.879 34.701V28.539C28.879 28.4523 28.905 28.383 28.957 28.331C29.0177 28.2703 29.0913 28.24 29.178 28.24H29.802C29.8887 28.24 29.958 28.2703 30.01 28.331C30.062 28.383 30.088 28.4523 30.088 28.539V34.701C30.088 34.7877 30.062 34.8613 30.01 34.922C29.958 34.974 29.8887 35 29.802 35H29.178ZM29.074 26.979C28.9873 26.979 28.9137 26.953 28.853 26.901C28.801 26.8403 28.775 26.7667 28.775 26.68V25.978C28.775 25.8913 28.801 25.822 28.853 25.77C28.9137 25.7093 28.9873 25.679 29.074 25.679H29.893C29.9797 25.679 30.049 25.7093 30.101 25.77C30.1617 25.822 30.192 25.8913 30.192 25.978V26.68C30.192 26.7667 30.1617 26.8403 30.101 26.901C30.049 26.953 29.9797 26.979 29.893 26.979H29.074ZM32.4534 35C32.3667 35 32.293 34.974 32.2324 34.922C32.1804 34.8613 32.1544 34.7877 32.1544 34.701V28.539C32.1544 28.4523 32.1804 28.383 32.2324 28.331C32.293 28.2703 32.3667 28.24 32.4534 28.24H33.0644C33.151 28.24 33.2204 28.2703 33.2724 28.331C33.333 28.383 33.3634 28.4523 33.3634 28.539V29.111C33.5887 28.8163 33.8704 28.578 34.2084 28.396C34.555 28.2053 34.997 28.11 35.5344 28.11C36.0977 28.11 36.5744 28.2357 36.9644 28.487C37.363 28.7297 37.662 29.072 37.8614 29.514C38.0607 29.9473 38.1604 30.4543 38.1604 31.035V34.701C38.1604 34.7877 38.1344 34.8613 38.0824 34.922C38.0304 34.974 37.961 35 37.8744 35H37.2244C37.1377 35 37.064 34.974 37.0034 34.922C36.9514 34.8613 36.9254 34.7877 36.9254 34.701V31.1C36.9254 30.4933 36.778 30.021 36.4834 29.683C36.1887 29.3363 35.7554 29.163 35.1834 29.163C34.646 29.163 34.2127 29.3363 33.8834 29.683C33.5627 30.021 33.4024 30.4933 33.4024 31.1V34.701C33.4024 34.7877 33.372 34.8613 33.3114 34.922C33.2594 34.974 33.19 35 33.1034 35H32.4534ZM40.3372 35C40.2505 35 40.1768 34.974 40.1162 34.922C40.0642 34.8613 40.0382 34.7877 40.0382 34.701V28.539C40.0382 28.4523 40.0642 28.383 40.1162 28.331C40.1768 28.2703 40.2505 28.24 40.3372 28.24H40.9612C41.0478 28.24 41.1172 28.2703 41.1692 28.331C41.2212 28.383 41.2472 28.4523 41.2472 28.539V34.701C41.2472 34.7877 41.2212 34.8613 41.1692 34.922C41.1172 34.974 41.0478 35 40.9612 35H40.3372ZM40.2332 26.979C40.1465 26.979 40.0728 26.953 40.0122 26.901C39.9602 26.8403 39.9342 26.7667 39.9342 26.68V25.978C39.9342 25.8913 39.9602 25.822 40.0122 25.77C40.0728 25.7093 40.1465 25.679 40.2332 25.679H41.0522C41.1388 25.679 41.2082 25.7093 41.2602 25.77C41.3208 25.822 41.3512 25.8913 41.3512 25.978V26.68C41.3512 26.7667 41.3208 26.8403 41.2602 26.901C41.2082 26.953 41.1388 26.979 41.0522 26.979H40.2332ZM45.6028 35.13C45.1174 35.13 44.7014 35.0693 44.3548 34.948C44.0081 34.8267 43.7264 34.6793 43.5098 34.506C43.2931 34.3327 43.1284 34.1593 43.0158 33.986C42.9118 33.8127 42.8554 33.674 42.8468 33.57C42.8381 33.4747 42.8684 33.401 42.9378 33.349C43.0071 33.297 43.0764 33.271 43.1458 33.271H43.7178C43.7698 33.271 43.8088 33.2797 43.8348 33.297C43.8694 33.3057 43.9128 33.3403 43.9648 33.401C44.0774 33.5223 44.2031 33.6437 44.3418 33.765C44.4804 33.8863 44.6494 33.986 44.8488 34.064C45.0568 34.142 45.3124 34.181 45.6158 34.181C46.0578 34.181 46.4218 34.0987 46.7078 33.934C46.9938 33.7607 47.1368 33.5093 47.1368 33.18C47.1368 32.9633 47.0761 32.79 46.9548 32.66C46.8421 32.53 46.6341 32.413 46.3308 32.309C46.0361 32.205 45.6288 32.0967 45.1088 31.984C44.5888 31.8627 44.1771 31.7153 43.8738 31.542C43.5704 31.36 43.3538 31.1477 43.2238 30.905C43.0938 30.6537 43.0288 30.372 43.0288 30.06C43.0288 29.7393 43.1241 29.4317 43.3148 29.137C43.5054 28.8337 43.7828 28.5867 44.1468 28.396C44.5194 28.2053 44.9831 28.11 45.5378 28.11C45.9884 28.11 46.3741 28.1663 46.6948 28.279C47.0154 28.3917 47.2798 28.5347 47.4878 28.708C47.6958 28.8727 47.8518 29.0373 47.9558 29.202C48.0598 29.3667 48.1161 29.5053 48.1248 29.618C48.1334 29.7047 48.1074 29.7783 48.0468 29.839C47.9861 29.891 47.9168 29.917 47.8388 29.917H47.2928C47.2321 29.917 47.1801 29.904 47.1368 29.878C47.1021 29.852 47.0674 29.8217 47.0328 29.787C46.9461 29.6743 46.8421 29.5617 46.7208 29.449C46.6081 29.3363 46.4564 29.2453 46.2658 29.176C46.0838 29.098 45.8411 29.059 45.5378 29.059C45.1044 29.059 44.7794 29.15 44.5628 29.332C44.3461 29.514 44.2378 29.7437 44.2378 30.021C44.2378 30.1857 44.2854 30.333 44.3808 30.463C44.4761 30.593 44.6581 30.71 44.9268 30.814C45.1954 30.918 45.5941 31.0307 46.1228 31.152C46.6948 31.2647 47.1454 31.4163 47.4748 31.607C47.8041 31.7977 48.0381 32.0187 48.1768 32.27C48.3154 32.5213 48.3848 32.8117 48.3848 33.141C48.3848 33.505 48.2764 33.8387 48.0598 34.142C47.8518 34.4453 47.5398 34.688 47.1238 34.87C46.7164 35.0433 46.2094 35.13 45.6028 35.13ZM52.516 35C52.0307 35 51.6364 34.909 51.333 34.727C51.0297 34.5363 50.8087 34.272 50.67 33.934C50.5314 33.5873 50.462 33.18 50.462 32.712V29.28H49.448C49.3614 29.28 49.2877 29.254 49.227 29.202C49.175 29.1413 49.149 29.0677 49.149 28.981V28.539C49.149 28.4523 49.175 28.383 49.227 28.331C49.2877 28.2703 49.3614 28.24 49.448 28.24H50.462V26.069C50.462 25.9823 50.488 25.913 50.54 25.861C50.6007 25.8003 50.6744 25.77 50.761 25.77H51.372C51.4587 25.77 51.528 25.8003 51.58 25.861C51.6407 25.913 51.671 25.9823 51.671 26.069V28.24H53.283C53.3697 28.24 53.439 28.2703 53.491 28.331C53.5517 28.383 53.582 28.4523 53.582 28.539V28.981C53.582 29.0677 53.5517 29.1413 53.491 29.202C53.439 29.254 53.3697 29.28 53.283 29.28H51.671V32.621C51.671 33.0283 51.7404 33.349 51.879 33.583C52.0177 33.817 52.2647 33.934 52.62 33.934H53.413C53.4997 33.934 53.569 33.9643 53.621 34.025C53.6817 34.077 53.712 34.1463 53.712 34.233V34.701C53.712 34.7877 53.6817 34.8613 53.621 34.922C53.569 34.974 53.4997 35 53.413 35H52.516ZM55.2542 35C55.1675 35 55.0938 34.974 55.0332 34.922C54.9812 34.8613 54.9552 34.7877 54.9552 34.701V28.552C54.9552 28.4653 54.9812 28.3917 55.0332 28.331C55.0938 28.2703 55.1675 28.24 55.2542 28.24H55.8522C55.9388 28.24 56.0125 28.2703 56.0732 28.331C56.1338 28.3917 56.1642 28.4653 56.1642 28.552V29.124C56.3375 28.8293 56.5758 28.6083 56.8792 28.461C57.1825 28.3137 57.5465 28.24 57.9712 28.24H58.4912C58.5778 28.24 58.6472 28.2703 58.6992 28.331C58.7512 28.383 58.7772 28.4523 58.7772 28.539V29.072C58.7772 29.1587 58.7512 29.228 58.6992 29.28C58.6472 29.332 58.5778 29.358 58.4912 29.358H57.7112C57.2432 29.358 56.8748 29.4967 56.6062 29.774C56.3375 30.0427 56.2032 30.411 56.2032 30.879V34.701C56.2032 34.7877 56.1728 34.8613 56.1122 34.922C56.0515 34.974 55.9778 35 55.8912 35H55.2542ZM61.6771 35.13C61.2437 35.13 60.8494 35.0433 60.4941 34.87C60.1387 34.6967 59.8527 34.4627 59.6361 34.168C59.4194 33.8733 59.3111 33.5397 59.3111 33.167C59.3111 32.569 59.5537 32.0923 60.0391 31.737C60.5244 31.3817 61.1571 31.1477 61.9371 31.035L63.8741 30.762V30.385C63.8741 29.969 63.7527 29.644 63.5101 29.41C63.2761 29.176 62.8904 29.059 62.3531 29.059C61.9631 29.059 61.6467 29.137 61.4041 29.293C61.1701 29.449 61.0054 29.6483 60.9101 29.891C60.8581 30.021 60.7671 30.086 60.6371 30.086H60.0521C59.9567 30.086 59.8831 30.06 59.8311 30.008C59.7877 29.9473 59.7661 29.878 59.7661 29.8C59.7661 29.67 59.8137 29.5097 59.9091 29.319C60.0131 29.1283 60.1691 28.942 60.3771 28.76C60.5851 28.578 60.8494 28.4263 61.1701 28.305C61.4994 28.175 61.8981 28.11 62.3661 28.11C62.8861 28.11 63.3237 28.1793 63.6791 28.318C64.0344 28.448 64.3117 28.6257 64.5111 28.851C64.7191 29.0763 64.8664 29.332 64.9531 29.618C65.0484 29.904 65.0961 30.1943 65.0961 30.489V34.701C65.0961 34.7877 65.0657 34.8613 65.0051 34.922C64.9531 34.974 64.8837 35 64.7971 35H64.1991C64.1037 35 64.0301 34.974 63.9781 34.922C63.9261 34.8613 63.9001 34.7877 63.9001 34.701V34.142C63.7874 34.298 63.6357 34.454 63.4451 34.61C63.2544 34.7573 63.0161 34.883 62.7301 34.987C62.4441 35.0823 62.0931 35.13 61.6771 35.13ZM61.9501 34.155C62.3054 34.155 62.6304 34.0813 62.9251 33.934C63.2197 33.778 63.4494 33.5397 63.6141 33.219C63.7874 32.8983 63.8741 32.4953 63.8741 32.01V31.646L62.3661 31.867C61.7507 31.9537 61.2871 32.101 60.9751 32.309C60.6631 32.5083 60.5071 32.764 60.5071 33.076C60.5071 33.3187 60.5764 33.5223 60.7151 33.687C60.8624 33.843 61.0444 33.96 61.2611 34.038C61.4864 34.116 61.7161 34.155 61.9501 34.155ZM69.5405 35C69.0551 35 68.6608 34.909 68.3575 34.727C68.0541 34.5363 67.8331 34.272 67.6945 33.934C67.5558 33.5873 67.4865 33.18 67.4865 32.712V29.28H66.4725C66.3858 29.28 66.3121 29.254 66.2515 29.202C66.1995 29.1413 66.1735 29.0677 66.1735 28.981V28.539C66.1735 28.4523 66.1995 28.383 66.2515 28.331C66.3121 28.2703 66.3858 28.24 66.4725 28.24H67.4865V26.069C67.4865 25.9823 67.5125 25.913 67.5645 25.861C67.6251 25.8003 67.6988 25.77 67.7855 25.77H68.3965C68.4831 25.77 68.5525 25.8003 68.6045 25.861C68.6651 25.913 68.6955 25.9823 68.6955 26.069V28.24H70.3075C70.3941 28.24 70.4635 28.2703 70.5155 28.331C70.5761 28.383 70.6065 28.4523 70.6065 28.539V28.981C70.6065 29.0677 70.5761 29.1413 70.5155 29.202C70.4635 29.254 70.3941 29.28 70.3075 29.28H68.6955V32.621C68.6955 33.0283 68.7648 33.349 68.9035 33.583C69.0421 33.817 69.2891 33.934 69.6445 33.934H70.4375C70.5241 33.934 70.5935 33.9643 70.6455 34.025C70.7061 34.077 70.7365 34.1463 70.7365 34.233V34.701C70.7365 34.7877 70.7061 34.8613 70.6455 34.922C70.5935 34.974 70.5241 35 70.4375 35H69.5405ZM74.7486 35.13C74.0899 35.13 73.5396 35.0043 73.0976 34.753C72.6556 34.5017 72.3176 34.155 72.0836 33.713C71.8496 33.2623 71.7196 32.751 71.6936 32.179C71.6849 32.0317 71.6806 31.8453 71.6806 31.62C71.6806 31.386 71.6849 31.1997 71.6936 31.061C71.7196 30.4803 71.8496 29.969 72.0836 29.527C72.3262 29.085 72.6686 28.7383 73.1106 28.487C73.5526 28.2357 74.0986 28.11 74.7486 28.11C75.3986 28.11 75.9446 28.2357 76.3866 28.487C76.8286 28.7383 77.1666 29.085 77.4006 29.527C77.6432 29.969 77.7776 30.4803 77.8036 31.061C77.8122 31.1997 77.8166 31.386 77.8166 31.62C77.8166 31.8453 77.8122 32.0317 77.8036 32.179C77.7776 32.751 77.6476 33.2623 77.4136 33.713C77.1796 34.155 76.8416 34.5017 76.3996 34.753C75.9576 35.0043 75.4072 35.13 74.7486 35.13ZM74.7486 34.129C75.2859 34.129 75.7149 33.96 76.0356 33.622C76.3562 33.2753 76.5296 32.7727 76.5556 32.114C76.5642 31.984 76.5686 31.8193 76.5686 31.62C76.5686 31.4207 76.5642 31.256 76.5556 31.126C76.5296 30.4673 76.3562 29.969 76.0356 29.631C75.7149 29.2843 75.2859 29.111 74.7486 29.111C74.2112 29.111 73.7779 29.2843 73.4486 29.631C73.1279 29.969 72.9589 30.4673 72.9416 31.126C72.9329 31.256 72.9286 31.4207 72.9286 31.62C72.9286 31.8193 72.9329 31.984 72.9416 32.114C72.9589 32.7727 73.1279 33.2753 73.4486 33.622C73.7779 33.96 74.2112 34.129 74.7486 34.129ZM79.7434 35C79.6568 35 79.5831 34.974 79.5224 34.922C79.4704 34.8613 79.4444 34.7877 79.4444 34.701V28.552C79.4444 28.4653 79.4704 28.3917 79.5224 28.331C79.5831 28.2703 79.6568 28.24 79.7434 28.24H80.3414C80.4281 28.24 80.5018 28.2703 80.5624 28.331C80.6231 28.3917 80.6534 28.4653 80.6534 28.552V29.124C80.8268 28.8293 81.0651 28.6083 81.3684 28.461C81.6718 28.3137 82.0358 28.24 82.4604 28.24H82.9804C83.0671 28.24 83.1364 28.2703 83.1884 28.331C83.2404 28.383 83.2664 28.4523 83.2664 28.539V29.072C83.2664 29.1587 83.2404 29.228 83.1884 29.28C83.1364 29.332 83.0671 29.358 82.9804 29.358H82.2004C81.7324 29.358 81.3641 29.4967 81.0954 29.774C80.8268 30.0427 80.6924 30.411 80.6924 30.879V34.701C80.6924 34.7877 80.6621 34.8613 80.6014 34.922C80.5408 34.974 80.4671 35 80.3804 35H79.7434ZM87.5767 37.47C87.4901 37.47 87.4164 37.4397 87.3557 37.379C87.3037 37.327 87.2777 37.2577 87.2777 37.171V28.539C87.2777 28.4523 87.3037 28.383 87.3557 28.331C87.4164 28.2703 87.4901 28.24 87.5767 28.24H88.1747C88.2614 28.24 88.3307 28.2703 88.3827 28.331C88.4434 28.383 88.4737 28.4523 88.4737 28.539V29.111C88.6817 28.825 88.9591 28.5867 89.3057 28.396C89.6524 28.2053 90.0857 28.11 90.6057 28.11C91.0911 28.11 91.5027 28.1923 91.8407 28.357C92.1874 28.5217 92.4691 28.747 92.6857 29.033C92.9111 29.319 93.0801 29.644 93.1927 30.008C93.3054 30.372 93.3661 30.762 93.3747 31.178C93.3834 31.3167 93.3877 31.464 93.3877 31.62C93.3877 31.776 93.3834 31.9233 93.3747 32.062C93.3661 32.4693 93.3054 32.8593 93.1927 33.232C93.0801 33.596 92.9111 33.921 92.6857 34.207C92.4691 34.4843 92.1874 34.7097 91.8407 34.883C91.5027 35.0477 91.0911 35.13 90.6057 35.13C90.1031 35.13 89.6784 35.039 89.3317 34.857C88.9937 34.6663 88.7164 34.4323 88.4997 34.155V37.171C88.4997 37.2577 88.4737 37.327 88.4217 37.379C88.3697 37.4397 88.2961 37.47 88.2007 37.47H87.5767ZM90.3327 34.077C90.7834 34.077 91.1344 33.9817 91.3857 33.791C91.6457 33.5917 91.8321 33.336 91.9447 33.024C92.0574 32.7033 92.1224 32.361 92.1397 31.997C92.1484 31.7457 92.1484 31.4943 92.1397 31.243C92.1224 30.879 92.0574 30.541 91.9447 30.229C91.8321 29.9083 91.6457 29.6527 91.3857 29.462C91.1344 29.2627 90.7834 29.163 90.3327 29.163C89.9081 29.163 89.5614 29.2627 89.2927 29.462C89.0327 29.6613 88.8377 29.917 88.7077 30.229C88.5864 30.5323 88.5171 30.8443 88.4997 31.165C88.4911 31.3037 88.4867 31.4683 88.4867 31.659C88.4867 31.8497 88.4911 32.0187 88.4997 32.166C88.5084 32.4693 88.5777 32.7683 88.7077 33.063C88.8464 33.3577 89.0501 33.6003 89.3187 33.791C89.5874 33.9817 89.9254 34.077 90.3327 34.077ZM96.8939 35.13C96.4605 35.13 96.0662 35.0433 95.7109 34.87C95.3555 34.6967 95.0695 34.4627 94.8529 34.168C94.6362 33.8733 94.5279 33.5397 94.5279 33.167C94.5279 32.569 94.7705 32.0923 95.2559 31.737C95.7412 31.3817 96.3739 31.1477 97.1539 31.035L99.0909 30.762V30.385C99.0909 29.969 98.9695 29.644 98.7269 29.41C98.4929 29.176 98.1072 29.059 97.5699 29.059C97.1799 29.059 96.8635 29.137 96.6209 29.293C96.3869 29.449 96.2222 29.6483 96.1269 29.891C96.0749 30.021 95.9839 30.086 95.8539 30.086H95.2689C95.1735 30.086 95.0999 30.06 95.0479 30.008C95.0045 29.9473 94.9829 29.878 94.9829 29.8C94.9829 29.67 95.0305 29.5097 95.1259 29.319C95.2299 29.1283 95.3859 28.942 95.5939 28.76C95.8019 28.578 96.0662 28.4263 96.3869 28.305C96.7162 28.175 97.1149 28.11 97.5829 28.11C98.1029 28.11 98.5405 28.1793 98.8959 28.318C99.2512 28.448 99.5285 28.6257 99.7279 28.851C99.9359 29.0763 100.083 29.332 100.17 29.618C100.265 29.904 100.313 30.1943 100.313 30.489V34.701C100.313 34.7877 100.283 34.8613 100.222 34.922C100.17 34.974 100.101 35 100.014 35H99.4159C99.3205 35 99.2469 34.974 99.1949 34.922C99.1429 34.8613 99.1169 34.7877 99.1169 34.701V34.142C99.0042 34.298 98.8525 34.454 98.6619 34.61C98.4712 34.7573 98.2329 34.883 97.9469 34.987C97.6609 35.0823 97.3099 35.13 96.8939 35.13ZM97.1669 34.155C97.5222 34.155 97.8472 34.0813 98.1419 33.934C98.4365 33.778 98.6662 33.5397 98.8309 33.219C99.0042 32.8983 99.0909 32.4953 99.0909 32.01V31.646L97.5829 31.867C96.9675 31.9537 96.5039 32.101 96.1919 32.309C95.8799 32.5083 95.7239 32.764 95.7239 33.076C95.7239 33.3187 95.7932 33.5223 95.9319 33.687C96.0792 33.843 96.2612 33.96 96.4779 34.038C96.7032 34.116 96.9329 34.155 97.1669 34.155ZM102.481 35C102.394 35 102.32 34.974 102.26 34.922C102.208 34.8613 102.182 34.7877 102.182 34.701V28.539C102.182 28.4523 102.208 28.383 102.26 28.331C102.32 28.2703 102.394 28.24 102.481 28.24H103.092C103.178 28.24 103.248 28.2703 103.3 28.331C103.36 28.383 103.391 28.4523 103.391 28.539V29.111C103.616 28.8163 103.898 28.578 104.236 28.396C104.582 28.2053 105.024 28.11 105.562 28.11C106.125 28.11 106.602 28.2357 106.992 28.487C107.39 28.7297 107.689 29.072 107.889 29.514C108.088 29.9473 108.188 30.4543 108.188 31.035V34.701C108.188 34.7877 108.162 34.8613 108.11 34.922C108.058 34.974 107.988 35 107.902 35H107.252C107.165 35 107.091 34.974 107.031 34.922C106.979 34.8613 106.953 34.7877 106.953 34.701V31.1C106.953 30.4933 106.805 30.021 106.511 29.683C106.216 29.3363 105.783 29.163 105.211 29.163C104.673 29.163 104.24 29.3363 103.911 29.683C103.59 30.021 103.43 30.4933 103.43 31.1V34.701C103.43 34.7877 103.399 34.8613 103.339 34.922C103.287 34.974 103.217 35 103.131 35H102.481ZM112.757 35.13C111.864 35.13 111.153 34.857 110.625 34.311C110.096 33.7563 109.806 33.0023 109.754 32.049C109.745 31.9363 109.741 31.7933 109.741 31.62C109.741 31.438 109.745 31.2907 109.754 31.178C109.788 30.5627 109.931 30.0253 110.183 29.566C110.434 29.098 110.776 28.7383 111.21 28.487C111.652 28.2357 112.167 28.11 112.757 28.11C113.415 28.11 113.966 28.2487 114.408 28.526C114.858 28.8033 115.201 29.1977 115.435 29.709C115.669 30.2203 115.786 30.8183 115.786 31.503V31.724C115.786 31.8193 115.755 31.893 115.695 31.945C115.643 31.997 115.573 32.023 115.487 32.023H110.989C110.989 32.0317 110.989 32.049 110.989 32.075C110.989 32.101 110.989 32.1227 110.989 32.14C111.006 32.4953 111.084 32.829 111.223 33.141C111.361 33.4443 111.561 33.6913 111.821 33.882C112.081 34.0727 112.393 34.168 112.757 34.168C113.069 34.168 113.329 34.1203 113.537 34.025C113.745 33.9297 113.914 33.8257 114.044 33.713C114.174 33.5917 114.26 33.5007 114.304 33.44C114.382 33.3273 114.442 33.2623 114.486 33.245C114.529 33.219 114.598 33.206 114.694 33.206H115.318C115.404 33.206 115.474 33.232 115.526 33.284C115.586 33.3273 115.612 33.3923 115.604 33.479C115.595 33.609 115.526 33.7693 115.396 33.96C115.266 34.142 115.079 34.324 114.837 34.506C114.594 34.688 114.299 34.8397 113.953 34.961C113.606 35.0737 113.207 35.13 112.757 35.13ZM110.989 31.126H114.551V31.087C114.551 30.697 114.477 30.3503 114.33 30.047C114.191 29.7437 113.987 29.5053 113.719 29.332C113.45 29.15 113.129 29.059 112.757 29.059C112.384 29.059 112.063 29.15 111.795 29.332C111.535 29.5053 111.335 29.7437 111.197 30.047C111.058 30.3503 110.989 30.697 110.989 31.087V31.126ZM117.652 35C117.565 35 117.492 34.974 117.431 34.922C117.379 34.8613 117.353 34.7877 117.353 34.701V26.069C117.353 25.9823 117.379 25.913 117.431 25.861C117.492 25.8003 117.565 25.77 117.652 25.77H118.263C118.358 25.77 118.432 25.8003 118.484 25.861C118.536 25.913 118.562 25.9823 118.562 26.069V34.701C118.562 34.7877 118.536 34.8613 118.484 34.922C118.432 34.974 118.358 35 118.263 35H117.652Z" fill="#423E48"/>
<path d="M9.28926 21.6774C7.39145 21.6774 5.76334 21.3663 4.40491 20.7441C3.06645 20.1219 2.01767 19.2086 1.25854 18.0043C0.519399 16.8 0.109873 15.3047 0.0299653 13.5183C0.00998845 12.6953 0 11.8122 0 10.8688C0 9.92545 0.00998845 9.02222 0.0299653 8.15914C0.109873 6.4129 0.529388 4.93763 1.28851 3.73333C2.04763 2.50896 3.10641 1.58566 4.46484 0.963441C5.82327 0.321147 7.43141 0 9.28926 0C10.6077 0 11.8263 0.17061 12.945 0.511829C14.0637 0.832975 15.0426 1.3147 15.8816 1.95699C16.7207 2.57921 17.3699 3.34194 17.8294 4.24516C18.3088 5.12831 18.5585 6.1319 18.5785 7.25591C18.5985 7.43656 18.5386 7.5871 18.3987 7.70753C18.2789 7.82796 18.129 7.88817 17.9492 7.88817H13.9039C13.6442 7.88817 13.4445 7.83799 13.3046 7.73764C13.1648 7.6172 13.0449 7.40645 12.945 7.10538C12.6654 6.04158 12.2059 5.319 11.5666 4.93764C10.9473 4.5362 10.1782 4.33548 9.25929 4.33548C8.16056 4.33548 7.29157 4.64659 6.65231 5.26882C6.01305 5.87097 5.66345 6.88459 5.60352 8.30968C5.54359 9.95556 5.54359 11.6416 5.60352 13.3677C5.66345 14.7928 6.01305 15.8165 6.65231 16.4387C7.29157 17.0409 8.16056 17.3419 9.25929 17.3419C10.1782 17.3419 10.9573 17.1412 11.5966 16.7398C12.2359 16.3384 12.6853 15.6158 12.945 14.572C13.0249 14.271 13.1348 14.0703 13.2746 13.9699C13.4345 13.8495 13.6442 13.7892 13.9039 13.7892H17.9492C18.129 13.7892 18.2789 13.8495 18.3987 13.9699C18.5386 14.0903 18.5985 14.2409 18.5785 14.4215C18.5585 15.5455 18.3088 16.5591 17.8294 17.4624C17.3699 18.3455 16.7207 19.1082 15.8816 19.7505C15.0426 20.3728 14.0637 20.8545 12.945 21.1957C11.8263 21.5168 10.6077 21.6774 9.28926 21.6774Z" fill="#4275D8"/>
<path d="M26.0743 21.6774C24.9955 21.6774 24.0267 21.4767 23.1677 21.0753C22.3286 20.6538 21.6594 20.0918 21.16 19.3892C20.6606 18.6867 20.4108 17.8939 20.4108 17.0108C20.4108 15.5857 20.9902 14.4617 22.1488 13.6387C23.3075 12.7957 24.8457 12.2237 26.7635 11.9226L30.5092 11.3505V10.929C30.5092 10.2065 30.3593 9.65448 30.0597 9.27312C29.76 8.89176 29.2107 8.70108 28.4116 8.70108C27.8522 8.70108 27.3928 8.81147 27.0332 9.03226C26.6936 9.25305 26.4239 9.55412 26.2241 9.93548C26.0443 10.1964 25.7946 10.3269 25.475 10.3269H22.1189C21.8991 10.3269 21.7293 10.2667 21.6095 10.1462C21.4896 10.0057 21.4397 9.84516 21.4596 9.66452C21.4596 9.30323 21.5895 8.89176 21.8492 8.43011C22.1289 7.94839 22.5484 7.4767 23.1077 7.01505C23.6671 6.55341 24.3863 6.17204 25.2652 5.87097C26.1442 5.56989 27.203 5.41935 28.4416 5.41935C29.7401 5.41935 30.8488 5.56989 31.7677 5.87097C32.6867 6.17204 33.4258 6.59355 33.9852 7.13548C34.5645 7.67742 34.994 8.31971 35.2737 9.06237C35.5533 9.78495 35.6932 10.5878 35.6932 11.471V20.6237C35.6932 20.8444 35.6133 21.0251 35.4535 21.1656C35.3136 21.3061 35.1438 21.3763 34.944 21.3763H31.4681C31.2483 21.3763 31.0685 21.3061 30.9287 21.1656C30.7888 21.0251 30.7189 20.8444 30.7189 20.6237V19.5699C30.4592 19.9513 30.1096 20.3025 29.6701 20.6237C29.2306 20.9448 28.7113 21.1957 28.1119 21.3763C27.5326 21.5771 26.8534 21.6774 26.0743 21.6774ZM27.4827 18.2452C28.062 18.2452 28.5814 18.1247 29.0409 17.8839C29.5203 17.6229 29.8899 17.2315 30.1496 16.7097C30.4293 16.1677 30.5691 15.4953 30.5691 14.6925V14.271L28.022 14.7226C27.0831 14.8832 26.3939 15.1341 25.9544 15.4753C25.5349 15.7964 25.3252 16.1778 25.3252 16.6194C25.3252 16.9606 25.4251 17.2516 25.6248 17.4925C25.8246 17.7333 26.0843 17.924 26.4039 18.0645C26.7235 18.1849 27.0831 18.2452 27.4827 18.2452Z" fill="#4275D8"/>
<path d="M48.6036 21.6774C47.4848 21.6774 46.5459 21.4867 45.7868 21.1054C45.0477 20.724 44.4384 20.2423 43.9589 19.6602V20.6237C43.9589 20.8444 43.879 21.0251 43.7192 21.1656C43.5794 21.3061 43.4096 21.3763 43.2098 21.3763H39.8237C39.604 21.3763 39.4242 21.3061 39.2843 21.1656C39.1445 21.0251 39.0746 20.8444 39.0746 20.6237V0.752688C39.0746 0.5319 39.1445 0.351255 39.2843 0.210753C39.4242 0.0702511 39.604 0 39.8237 0H43.4795C43.6992 0 43.879 0.0702511 44.0189 0.210753C44.1587 0.351255 44.2286 0.5319 44.2286 0.752688V7.1957C44.7081 6.67384 45.3074 6.25233 46.0265 5.93118C46.7657 5.58996 47.6247 5.41935 48.6036 5.41935C49.6024 5.41935 50.4814 5.58996 51.2405 5.93118C52.0196 6.25233 52.6788 6.72402 53.2182 7.34624C53.7576 7.96846 54.1771 8.71111 54.4768 9.57419C54.7764 10.4373 54.9462 11.4108 54.9862 12.4946C55.0062 12.876 55.0161 13.2272 55.0161 13.5484C55.0161 13.8495 55.0062 14.2007 54.9862 14.6022C54.9462 15.7262 54.7664 16.7297 54.4468 17.6129C54.1471 18.476 53.7276 19.2186 53.1883 19.8409C52.6489 20.443 51.9996 20.9047 51.2405 21.2258C50.4814 21.5269 49.6024 21.6774 48.6036 21.6774ZM46.9854 17.643C47.6646 17.643 48.194 17.5025 48.5736 17.2215C48.9532 16.9405 49.2228 16.5591 49.3827 16.0774C49.5624 15.5957 49.6723 15.0638 49.7123 14.4817C49.7522 13.8595 49.7522 13.2373 49.7123 12.6151C49.6723 12.033 49.5624 11.5011 49.3827 11.0194C49.2228 10.5376 48.9532 10.1563 48.5736 9.87527C48.194 9.59426 47.6646 9.45376 46.9854 9.45376C46.3661 9.45376 45.8567 9.59426 45.4572 9.87527C45.0577 10.1362 44.758 10.4875 44.5582 10.929C44.3585 11.3505 44.2486 11.8122 44.2286 12.314C44.2086 12.6953 44.1987 13.0667 44.1987 13.428C44.1987 13.7892 44.2086 14.1706 44.2286 14.572C44.2486 15.114 44.3485 15.6158 44.5283 16.0774C44.7081 16.5391 44.9977 16.9204 45.3973 17.2215C45.7968 17.5025 46.3262 17.643 46.9854 17.643Z" fill="#4275D8"/>
<path d="M65.1702 21.6774C62.8129 21.6774 60.9351 21.0351 59.5367 19.7505C58.1383 18.466 57.4092 16.5591 57.3492 14.0301C57.3492 13.8896 57.3492 13.709 57.3492 13.4882C57.3492 13.2674 57.3492 13.0968 57.3492 12.9763C57.4092 11.3907 57.7588 10.0358 58.398 8.91183C59.0573 7.76774 59.9562 6.90466 61.0949 6.32258C62.2536 5.72043 63.602 5.41935 65.1402 5.41935C66.8982 5.41935 68.3465 5.77061 69.4852 6.47312C70.6439 7.17563 71.5128 8.12903 72.0922 9.33333C72.6715 10.5376 72.9612 11.9125 72.9612 13.4581V14.1806C72.9612 14.4014 72.8813 14.5821 72.7215 14.7226C72.5816 14.8631 72.4118 14.9333 72.212 14.9333H62.6231C62.6231 14.9534 62.6231 14.9835 62.6231 15.0237C62.6231 15.0638 62.6231 15.1039 62.6231 15.1441C62.6431 15.7262 62.743 16.2581 62.9228 16.7398C63.1026 17.2215 63.3822 17.6029 63.7618 17.8839C64.1414 18.1649 64.6008 18.3054 65.1402 18.3054C65.5397 18.3054 65.8694 18.2452 66.1291 18.1247C66.4088 17.9842 66.6385 17.8337 66.8183 17.6731C66.9981 17.4925 67.1379 17.3419 67.2378 17.2215C67.4176 17.0208 67.5574 16.9004 67.6573 16.8602C67.7772 16.8 67.957 16.7699 68.1967 16.7699H71.9124C72.1122 16.7699 72.272 16.8301 72.3918 16.9505C72.5317 17.0509 72.5916 17.2014 72.5716 17.4022C72.5516 17.7434 72.3818 18.1548 72.0622 18.6366C71.7426 19.1183 71.2731 19.6 70.6538 20.0817C70.0545 20.5434 69.2954 20.9247 68.3765 21.2258C67.4575 21.5269 66.3888 21.6774 65.1702 21.6774ZM62.6231 11.9527H67.6873V11.8925C67.6873 11.2502 67.5874 10.6882 67.3876 10.2065C67.2078 9.72473 66.9182 9.3534 66.5186 9.09247C66.1391 8.83154 65.6796 8.70108 65.1402 8.70108C64.6008 8.70108 64.1414 8.83154 63.7618 9.09247C63.4022 9.3534 63.1225 9.72473 62.9228 10.2065C62.723 10.6882 62.6231 11.2502 62.6231 11.8925V11.9527Z" fill="#4275D8"/>
<path d="M76.5196 21.3763C76.2998 21.3763 76.12 21.3061 75.9802 21.1656C75.8403 21.0251 75.7704 20.8444 75.7704 20.6237V0.752688C75.7704 0.5319 75.8403 0.351255 75.9802 0.210753C76.12 0.0702511 76.2998 0 76.5196 0H80.0555C80.2752 0 80.455 0.0702511 80.5948 0.210753C80.7347 0.351255 80.8046 0.5319 80.8046 0.752688V20.6237C80.8046 20.8444 80.7347 21.0251 80.5948 21.1656C80.455 21.3061 80.2752 21.3763 80.0555 21.3763H76.5196Z" fill="#4275D8"/>
<path d="M90.6372 21.3763C90.4374 21.3763 90.2776 21.3161 90.1578 21.1957C90.0379 21.0753 89.978 20.9147 89.978 20.714V2.10753H84.0448C83.8451 2.10753 83.6852 2.04731 83.5654 1.92688C83.4455 1.80645 83.3856 1.64588 83.3856 1.44516V0.993548C83.3856 0.77276 83.4455 0.602151 83.5654 0.481721C83.6852 0.36129 83.8451 0.301075 84.0448 0.301075H97.769C97.9887 0.301075 98.1585 0.36129 98.2784 0.481721C98.3982 0.602151 98.4582 0.77276 98.4582 0.993548V1.44516C98.4582 1.64588 98.3982 1.80645 98.2784 1.92688C98.1585 2.04731 97.9887 2.10753 97.769 2.10753H91.8658V20.714C91.8658 20.9147 91.8058 21.0753 91.686 21.1957C91.5661 21.3161 91.3963 21.3763 91.1766 21.3763H90.6372Z" fill="#423E48"/>
<path d="M104.661 21.6774C103.223 21.6774 102.014 21.3763 101.035 20.7742C100.077 20.172 99.3374 19.3491 98.818 18.3054C98.3186 17.2617 98.0489 16.0975 98.0089 14.8129C97.9889 14.5118 97.979 14.0903 97.979 13.5484C97.979 13.0065 97.9889 12.5849 98.0089 12.2839C98.0489 10.9792 98.3186 9.81505 98.818 8.7914C99.3374 7.74767 100.077 6.92473 101.035 6.32258C102.014 5.72043 103.223 5.41935 104.661 5.41935C106.1 5.41935 107.298 5.72043 108.257 6.32258C109.236 6.92473 109.975 7.74767 110.474 8.7914C110.994 9.81505 111.274 10.9792 111.314 12.2839C111.334 12.5849 111.343 13.0065 111.343 13.5484C111.343 14.0903 111.334 14.5118 111.314 14.8129C111.274 16.0975 110.994 17.2617 110.474 18.3054C109.975 19.3491 109.236 20.172 108.257 20.7742C107.298 21.3763 106.1 21.6774 104.661 21.6774ZM104.661 19.9312C106.06 19.9312 107.198 19.4796 108.077 18.5763C108.956 17.6731 109.426 16.3685 109.486 14.6624C109.506 14.3613 109.516 13.99 109.516 13.5484C109.516 13.1068 109.506 12.7355 109.486 12.4344C109.426 10.7082 108.956 9.40358 108.077 8.52043C107.198 7.6172 106.06 7.16559 104.661 7.16559C103.263 7.16559 102.124 7.6172 101.245 8.52043C100.366 9.40358 99.8967 10.7082 99.8368 12.4344C99.8168 12.7355 99.8068 13.1068 99.8068 13.5484C99.8068 13.99 99.8168 14.3613 99.8368 14.6624C99.8967 16.3685 100.366 17.6731 101.245 18.5763C102.124 19.4796 103.263 19.9312 104.661 19.9312Z" fill="#423E48"/>
<path d="M116.097 21.3763C115.897 21.3763 115.737 21.3161 115.617 21.1957C115.497 21.0753 115.437 20.9147 115.437 20.714V6.4129C115.437 6.21219 115.497 6.05161 115.617 5.93118C115.737 5.79068 115.897 5.72043 116.097 5.72043H116.576C116.776 5.72043 116.936 5.79068 117.055 5.93118C117.195 6.05161 117.265 6.21219 117.265 6.4129V7.79785C117.625 7.09534 118.144 6.57348 118.823 6.23226C119.503 5.89104 120.342 5.72043 121.34 5.72043H122.449C122.649 5.72043 122.809 5.78064 122.929 5.90108C123.048 6.02151 123.108 6.18208 123.108 6.3828V6.8043C123.108 7.00502 123.048 7.16559 122.929 7.28602C122.809 7.40645 122.649 7.46667 122.449 7.46667H121.161C119.962 7.46667 119.013 7.81792 118.314 8.52043C117.615 9.22294 117.265 10.1763 117.265 11.3806V20.714C117.265 20.9147 117.195 21.0753 117.055 21.1957C116.936 21.3161 116.776 21.3763 116.576 21.3763H116.097Z" fill="#423E48"/>
<path d="M131.288 28C130.009 28 128.96 27.8294 128.141 27.4882C127.342 27.147 126.713 26.7254 126.254 26.2237C125.814 25.7419 125.504 25.2502 125.325 24.7484C125.145 24.2667 125.045 23.8753 125.025 23.5742C125.005 23.3735 125.065 23.2029 125.205 23.0624C125.345 22.9419 125.504 22.8817 125.684 22.8817H126.104C126.264 22.8817 126.403 22.9118 126.523 22.972C126.643 23.0523 126.743 23.233 126.823 23.514C126.943 23.8351 127.133 24.2065 127.392 24.628C127.672 25.0695 128.101 25.4509 128.681 25.772C129.28 26.0932 130.099 26.2538 131.138 26.2538C132.237 26.2538 133.156 26.1133 133.895 25.8323C134.634 25.5513 135.193 25.0495 135.573 24.3269C135.972 23.6244 136.172 22.6409 136.172 21.3763V19.2989C135.673 19.9814 135.013 20.5534 134.194 21.0151C133.395 21.4566 132.377 21.6774 131.138 21.6774C129.979 21.6774 128.99 21.4667 128.171 21.0452C127.372 20.6237 126.723 20.0616 126.224 19.3591C125.724 18.6566 125.355 17.8738 125.115 17.0108C124.875 16.1477 124.745 15.2746 124.725 14.3914C124.705 13.8294 124.705 13.2674 124.725 12.7054C124.745 11.8222 124.875 10.9491 125.115 10.086C125.355 9.22294 125.724 8.44014 126.224 7.73764C126.723 7.03513 127.372 6.47312 128.171 6.05161C128.99 5.63011 129.979 5.41935 131.138 5.41935C132.377 5.41935 133.395 5.65018 134.194 6.11183C135.013 6.57348 135.673 7.13548 136.172 7.79785V6.4129C136.172 6.21219 136.232 6.05161 136.352 5.93118C136.472 5.79068 136.632 5.72043 136.831 5.72043H137.311C137.511 5.72043 137.67 5.79068 137.79 5.93118C137.93 6.05161 138 6.21219 138 6.4129V21.0753C138 22.3599 137.81 23.524 137.431 24.5677C137.051 25.6115 136.372 26.4444 135.393 27.0667C134.434 27.6889 133.066 28 131.288 28ZM131.318 19.9312C132.456 19.9312 133.375 19.6602 134.075 19.1183C134.774 18.5763 135.283 17.9039 135.603 17.1011C135.942 16.2781 136.132 15.4552 136.172 14.6323C136.192 14.3312 136.202 13.9699 136.202 13.5484C136.202 13.1269 136.192 12.7656 136.172 12.4645C136.132 11.6416 135.942 10.8287 135.603 10.0258C135.283 9.20287 134.774 8.52043 134.075 7.97849C133.375 7.43656 132.456 7.16559 131.318 7.16559C130.159 7.16559 129.23 7.42652 128.531 7.94839C127.852 8.47025 127.362 9.15269 127.063 9.9957C126.763 10.8387 126.593 11.7419 126.553 12.7054C126.533 13.2674 126.533 13.8294 126.553 14.3914C126.593 15.3548 126.763 16.2581 127.063 17.1011C127.362 17.9441 127.852 18.6265 128.531 19.1484C129.23 19.6703 130.159 19.9312 131.318 19.9312Z" fill="#423E48"/>
</svg>
