<svg width="114" height="112" viewBox="0 0 114 112" fill="none" xmlns="http://www.w3.org/2000/svg">
<g clip-path="url(#clip0_1804_434)">
<path d="M56.9997 52.5669C63.0381 52.5669 67.9331 47.6122 67.9331 41.5003C67.9331 35.3883 63.0381 30.4336 56.9997 30.4336C50.9614 30.4336 46.0664 35.3883 46.0664 41.5003C46.0664 47.6122 50.9614 52.5669 56.9997 52.5669Z" fill="#DCDCDC"/>
<path d="M46.7497 6.91699L40.4972 13.8337H29.6663C25.8909 13.8337 22.833 16.9289 22.833 20.7503V62.2503C22.833 66.0718 25.8909 69.167 29.6663 69.167H84.333C88.1084 69.167 91.1663 66.0718 91.1663 62.2503V20.7503C91.1663 16.9289 88.1084 13.8337 84.333 13.8337H73.5022L67.2497 6.91699H46.7497ZM56.9997 58.792C47.5697 58.792 39.9163 51.0453 39.9163 41.5003C39.9163 31.9553 47.5697 24.2087 56.9997 24.2087C66.4297 24.2087 74.083 31.9553 74.083 41.5003C74.083 51.0453 66.4297 58.792 56.9997 58.792Z" fill="#DCDCDC"/>
</g>
<path d="M7.67373 106.806C6.10598 106.806 4.76102 106.551 3.63884 106.04C2.53316 105.529 1.66677 104.778 1.03967 103.789C0.429069 102.8 0.0907646 101.572 0.024754 100.104C0.00825133 99.4283 0 98.7029 0 97.928C0 97.153 0.00825133 96.4111 0.024754 95.7022C0.0907646 94.2677 0.43732 93.0559 1.06442 92.0667C1.69152 91.0609 2.56616 90.3025 3.68834 89.7914C4.81052 89.2638 6.13899 89 7.67373 89C8.76291 89 9.76957 89.1401 10.6937 89.4204C11.6179 89.6842 12.4265 90.0799 13.1196 90.6075C13.8127 91.1186 14.3491 91.7452 14.7286 92.4871C15.1247 93.2125 15.331 94.0369 15.3475 94.9602C15.364 95.1086 15.3145 95.2323 15.1989 95.3312C15.0999 95.4301 14.9762 95.4796 14.8276 95.4796H11.4858C11.2713 95.4796 11.1063 95.4384 10.9908 95.3559C10.8752 95.257 10.7762 95.0839 10.6937 94.8366C10.4627 93.9627 10.0831 93.3692 9.55504 93.0559C9.04345 92.7262 8.4081 92.5613 7.64898 92.5613C6.74134 92.5613 6.02347 92.8168 5.49538 93.328C4.9673 93.8226 4.6785 94.6552 4.62899 95.8258C4.57949 97.1778 4.57949 98.5627 4.62899 99.9806C4.6785 101.151 4.9673 101.992 5.49538 102.503C6.02347 102.998 6.74134 103.245 7.64898 103.245C8.4081 103.245 9.05171 103.08 9.57979 102.751C10.1079 102.421 10.4792 101.827 10.6937 100.97C10.7597 100.723 10.8505 100.558 10.966 100.475C11.098 100.376 11.2713 100.327 11.4858 100.327H14.8276C14.9762 100.327 15.0999 100.376 15.1989 100.475C15.3145 100.574 15.364 100.698 15.3475 100.846C15.331 101.77 15.1247 102.602 14.7286 103.344C14.3491 104.07 13.8127 104.696 13.1196 105.224C12.4265 105.735 11.6179 106.13 10.6937 106.411C9.76957 106.675 8.76291 106.806 7.67373 106.806Z" fill="#DCDCDC"/>
<path d="M21.5396 106.806C20.6485 106.806 19.8481 106.642 19.1385 106.312C18.4454 105.966 17.8926 105.504 17.48 104.927C17.0674 104.35 16.8611 103.699 16.8611 102.973C16.8611 101.803 17.3397 100.879 18.2969 100.203C19.254 99.5108 20.5247 99.0409 22.109 98.7935L25.2032 98.3237V97.9774C25.2032 97.3839 25.0795 96.9305 24.8319 96.6172C24.5844 96.3039 24.1306 96.1473 23.4704 96.1473C23.0084 96.1473 22.6288 96.238 22.3318 96.4194C22.0512 96.6007 21.8284 96.848 21.6634 97.1613C21.5149 97.3756 21.3086 97.4828 21.0446 97.4828H18.2721C18.0906 97.4828 17.9503 97.4333 17.8513 97.3344C17.7523 97.219 17.711 97.0871 17.7275 96.9387C17.7275 96.6419 17.8348 96.3039 18.0493 95.9247C18.2804 95.529 18.6269 95.1416 19.089 94.7624C19.5511 94.3832 20.1452 94.0699 20.8713 93.8226C21.5974 93.5753 22.472 93.4516 23.4952 93.4516C24.5679 93.4516 25.4838 93.5753 26.2429 93.8226C27.002 94.0699 27.6126 94.4161 28.0747 94.8613C28.5533 95.3065 28.9081 95.8341 29.1391 96.4441C29.3701 97.0376 29.4857 97.6971 29.4857 98.4226V105.941C29.4857 106.122 29.4197 106.271 29.2876 106.386C29.1721 106.501 29.0318 106.559 28.8668 106.559H25.9954C25.8138 106.559 25.6653 106.501 25.5498 106.386C25.4343 106.271 25.3765 106.122 25.3765 105.941V105.075C25.162 105.389 24.8732 105.677 24.5101 105.941C24.1471 106.205 23.718 106.411 23.2229 106.559C22.7443 106.724 22.1832 106.806 21.5396 106.806ZM22.7031 103.987C23.1817 103.987 23.6107 103.888 23.9903 103.69C24.3863 103.476 24.6916 103.154 24.9062 102.726C25.1372 102.281 25.2527 101.728 25.2527 101.069V100.723L23.1486 101.094C22.373 101.225 21.8037 101.432 21.4406 101.712C21.0941 101.976 20.9208 102.289 20.9208 102.652C20.9208 102.932 21.0033 103.171 21.1683 103.369C21.3334 103.567 21.5479 103.723 21.8119 103.839C22.076 103.938 22.373 103.987 22.7031 103.987Z" fill="#DCDCDC"/>
<path d="M40.1508 106.806C39.2266 106.806 38.451 106.65 37.8239 106.337C37.2133 106.023 36.71 105.628 36.3139 105.149V105.941C36.3139 106.122 36.2479 106.271 36.1159 106.386C36.0003 106.501 35.8601 106.559 35.695 106.559H32.8978C32.7163 106.559 32.5678 106.501 32.4523 106.386C32.3368 106.271 32.279 106.122 32.279 105.941V89.6183C32.279 89.4369 32.3368 89.2885 32.4523 89.1731C32.5678 89.0577 32.7163 89 32.8978 89H35.9178C36.0994 89 36.2479 89.0577 36.3634 89.1731C36.4789 89.2885 36.5367 89.4369 36.5367 89.6183V94.9108C36.9327 94.4821 37.4278 94.1358 38.0219 93.872C38.6325 93.5918 39.3421 93.4516 40.1508 93.4516C40.9759 93.4516 41.702 93.5918 42.3291 93.872C42.9727 94.1358 43.5173 94.5233 43.9629 95.0344C44.4085 95.5455 44.755 96.1556 45.0025 96.8645C45.2501 97.5735 45.3904 98.3731 45.4234 99.2634C45.4399 99.5767 45.4481 99.8652 45.4481 100.129C45.4481 100.376 45.4399 100.665 45.4234 100.995C45.3904 101.918 45.2418 102.742 44.9778 103.468C44.7302 104.177 44.3837 104.787 43.9381 105.298C43.4926 105.792 42.9562 106.172 42.3291 106.435C41.702 106.683 40.9759 106.806 40.1508 106.806ZM38.814 103.492C39.3751 103.492 39.8125 103.377 40.126 103.146C40.4396 102.915 40.6623 102.602 40.7944 102.206C40.9429 101.811 41.0337 101.374 41.0667 100.896C41.0997 100.385 41.0997 99.8735 41.0667 99.3624C41.0337 98.8842 40.9429 98.4473 40.7944 98.0516C40.6623 97.6559 40.4396 97.3427 40.126 97.1118C39.8125 96.881 39.3751 96.7656 38.814 96.7656C38.3025 96.7656 37.8816 96.881 37.5516 97.1118C37.2215 97.3262 36.974 97.6147 36.809 97.9774C36.6439 98.3237 36.5532 98.7029 36.5367 99.1151C36.5202 99.4283 36.5119 99.7333 36.5119 100.03C36.5119 100.327 36.5202 100.64 36.5367 100.97C36.5532 101.415 36.6357 101.827 36.7842 102.206C36.9327 102.586 37.172 102.899 37.5021 103.146C37.8321 103.377 38.2695 103.492 38.814 103.492Z" fill="#DCDCDC"/>
<path d="M53.8362 106.806C51.8889 106.806 50.3377 106.279 49.1825 105.224C48.0273 104.168 47.425 102.602 47.3754 100.525C47.3754 100.409 47.3754 100.261 47.3754 100.08C47.3754 99.8982 47.3754 99.7581 47.3754 99.6591C47.425 98.3566 47.7138 97.2437 48.2418 96.3204C48.7864 95.3806 49.529 94.6717 50.4697 94.1935C51.4269 93.6989 52.5408 93.4516 53.8115 93.4516C55.2637 93.4516 56.4602 93.7401 57.4008 94.3172C58.358 94.8943 59.0758 95.6774 59.5544 96.6667C60.033 97.6559 60.2723 98.7853 60.2723 100.055V100.648C60.2723 100.83 60.2063 100.978 60.0742 101.094C59.9587 101.209 59.8185 101.267 59.6534 101.267H51.7321C51.7321 101.283 51.7321 101.308 51.7321 101.341C51.7321 101.374 51.7321 101.407 51.7321 101.44C51.7486 101.918 51.8312 102.355 51.9797 102.751C52.1282 103.146 52.3592 103.459 52.6728 103.69C52.9863 103.921 53.3659 104.037 53.8115 104.037C54.1415 104.037 54.4138 103.987 54.6284 103.888C54.8594 103.773 55.0492 103.649 55.1977 103.517C55.3462 103.369 55.4617 103.245 55.5443 103.146C55.6928 102.981 55.8083 102.882 55.8908 102.849C55.9898 102.8 56.1384 102.775 56.3364 102.775H59.4059C59.5709 102.775 59.7029 102.825 59.8019 102.924C59.9175 103.006 59.967 103.13 59.9505 103.295C59.934 103.575 59.7937 103.913 59.5297 104.309C59.2656 104.704 58.8778 105.1 58.3662 105.496C57.8711 105.875 57.244 106.188 56.4849 106.435C55.7258 106.683 54.8429 106.806 53.8362 106.806ZM51.7321 98.8183H55.9156V98.7688C55.9156 98.2412 55.8331 97.7796 55.668 97.3839C55.5195 96.9882 55.2802 96.6832 54.9502 96.4688C54.6366 96.2545 54.257 96.1473 53.8115 96.1473C53.3659 96.1473 52.9863 96.2545 52.6728 96.4688C52.3757 96.6832 52.1447 96.9882 51.9797 97.3839C51.8147 97.7796 51.7321 98.2412 51.7321 98.7688V98.8183Z" fill="#DCDCDC"/>
<path d="M63.2118 106.559C63.0303 106.559 62.8818 106.501 62.7662 106.386C62.6507 106.271 62.593 106.122 62.593 105.941V89.6183C62.593 89.4369 62.6507 89.2885 62.7662 89.1731C62.8818 89.0577 63.0303 89 63.2118 89H66.1328C66.3143 89 66.4628 89.0577 66.5783 89.1731C66.6939 89.2885 66.7516 89.4369 66.7516 89.6183V105.941C66.7516 106.122 66.6939 106.271 66.5783 106.386C66.4628 106.501 66.3143 106.559 66.1328 106.559H63.2118Z" fill="#DCDCDC"/>
<path d="M74.8742 106.559C74.7092 106.559 74.5772 106.51 74.4781 106.411C74.3791 106.312 74.3296 106.18 74.3296 106.015V90.7312H69.4283C69.2633 90.7312 69.1313 90.6817 69.0323 90.5828C68.9333 90.4839 68.8838 90.352 68.8838 90.1871V89.8161C68.8838 89.6348 68.9333 89.4946 69.0323 89.3957C69.1313 89.2968 69.2633 89.2473 69.4283 89.2473H80.7657C80.9472 89.2473 81.0875 89.2968 81.1865 89.3957C81.2855 89.4946 81.335 89.6348 81.335 89.8161V90.1871C81.335 90.352 81.2855 90.4839 81.1865 90.5828C81.0875 90.6817 80.9472 90.7312 80.7657 90.7312H75.8891V106.015C75.8891 106.18 75.8396 106.312 75.7406 106.411C75.6416 106.51 75.5013 106.559 75.3198 106.559H74.8742Z" fill="#DCDCDC"/>
<path d="M86.4593 106.806C85.2711 106.806 84.2727 106.559 83.464 106.065C82.6719 105.57 82.0613 104.894 81.6322 104.037C81.2197 103.179 80.9969 102.223 80.9639 101.168C80.9474 100.92 80.9391 100.574 80.9391 100.129C80.9391 99.6839 80.9474 99.3376 80.9639 99.0903C80.9969 98.0186 81.2197 97.0624 81.6322 96.2215C82.0613 95.3642 82.6719 94.6882 83.464 94.1935C84.2727 93.6989 85.2711 93.4516 86.4593 93.4516C87.6475 93.4516 88.6376 93.6989 89.4297 94.1935C90.2384 94.6882 90.849 95.3642 91.2615 96.2215C91.6906 97.0624 91.9216 98.0186 91.9547 99.0903C91.9712 99.3376 91.9794 99.6839 91.9794 100.129C91.9794 100.574 91.9712 100.92 91.9547 101.168C91.9216 102.223 91.6906 103.179 91.2615 104.037C90.849 104.894 90.2384 105.57 89.4297 106.065C88.6376 106.559 87.6475 106.806 86.4593 106.806ZM86.4593 105.372C87.6145 105.372 88.5551 105.001 89.2812 104.259C90.0073 103.517 90.3952 102.446 90.4447 101.044C90.4612 100.797 90.4694 100.492 90.4694 100.129C90.4694 99.7663 90.4612 99.4613 90.4447 99.214C90.3952 97.7961 90.0073 96.7244 89.2812 95.9989C88.5551 95.257 87.6145 94.886 86.4593 94.886C85.3041 94.886 84.3634 95.257 83.6373 95.9989C82.9112 96.7244 82.5234 97.7961 82.4739 99.214C82.4574 99.4613 82.4491 99.7663 82.4491 100.129C82.4491 100.492 82.4574 100.797 82.4739 101.044C82.5234 102.446 82.9112 103.517 83.6373 104.259C84.3634 105.001 85.3041 105.372 86.4593 105.372Z" fill="#DCDCDC"/>
<path d="M95.9058 106.559C95.7408 106.559 95.6088 106.51 95.5098 106.411C95.4107 106.312 95.3612 106.18 95.3612 106.015V94.2677C95.3612 94.1029 95.4107 93.971 95.5098 93.872C95.6088 93.7566 95.7408 93.6989 95.9058 93.6989H96.3019C96.4669 93.6989 96.5989 93.7566 96.6979 93.872C96.8135 93.971 96.8712 94.1029 96.8712 94.2677V95.4054C97.1683 94.8283 97.5973 94.3996 98.1584 94.1194C98.7195 93.8391 99.4126 93.6989 100.238 93.6989H101.154C101.319 93.6989 101.451 93.7484 101.55 93.8473C101.649 93.9462 101.698 94.0781 101.698 94.243V94.5892C101.698 94.7541 101.649 94.886 101.55 94.9849C101.451 95.0839 101.319 95.1333 101.154 95.1333H100.089C99.0991 95.1333 98.3152 95.4219 97.7376 95.9989C97.16 96.576 96.8712 97.3591 96.8712 98.3484V106.015C96.8712 106.18 96.8135 106.312 96.6979 106.411C96.5989 106.51 96.4669 106.559 96.3019 106.559H95.9058Z" fill="#DCDCDC"/>
<path d="M108.455 112C107.399 112 106.533 111.86 105.856 111.58C105.196 111.299 104.676 110.953 104.296 110.541C103.933 110.145 103.678 109.741 103.529 109.329C103.381 108.933 103.298 108.612 103.282 108.365C103.265 108.2 103.315 108.06 103.43 107.944C103.546 107.845 103.678 107.796 103.826 107.796H104.173C104.305 107.796 104.42 107.82 104.519 107.87C104.618 107.936 104.701 108.084 104.767 108.315C104.866 108.579 105.023 108.884 105.237 109.23C105.468 109.593 105.823 109.906 106.302 110.17C106.797 110.434 107.473 110.566 108.331 110.566C109.239 110.566 109.998 110.45 110.609 110.219C111.219 109.989 111.681 109.576 111.995 108.983C112.325 108.406 112.49 107.598 112.49 106.559V104.853C112.077 105.413 111.533 105.883 110.856 106.262C110.196 106.625 109.355 106.806 108.331 106.806C107.374 106.806 106.557 106.633 105.881 106.287C105.221 105.941 104.684 105.479 104.272 104.902C103.859 104.325 103.554 103.682 103.356 102.973C103.158 102.264 103.05 101.547 103.034 100.822C103.017 100.36 103.017 99.8982 103.034 99.4366C103.05 98.7111 103.158 97.9939 103.356 97.2849C103.554 96.576 103.859 95.933 104.272 95.3559C104.684 94.7789 105.221 94.3172 105.881 93.971C106.557 93.6247 107.374 93.4516 108.331 93.4516C109.355 93.4516 110.196 93.6412 110.856 94.0204C111.533 94.3996 112.077 94.8613 112.49 95.4054V94.2677C112.49 94.1029 112.54 93.971 112.639 93.872C112.738 93.7566 112.87 93.6989 113.035 93.6989H113.431C113.596 93.6989 113.728 93.7566 113.827 93.872C113.942 93.971 114 94.1029 114 94.2677V106.312C114 107.367 113.843 108.323 113.53 109.181C113.216 110.038 112.655 110.722 111.846 111.233C111.054 111.744 109.924 112 108.455 112ZM108.48 105.372C109.421 105.372 110.18 105.149 110.757 104.704C111.335 104.259 111.756 103.707 112.02 103.047C112.3 102.371 112.457 101.695 112.49 101.019C112.507 100.772 112.515 100.475 112.515 100.129C112.515 99.7828 112.507 99.486 112.49 99.2387C112.457 98.5627 112.3 97.895 112.02 97.2355C111.756 96.5595 111.335 95.9989 110.757 95.5538C110.18 95.1086 109.421 94.886 108.48 94.886C107.523 94.886 106.755 95.1004 106.178 95.529C105.617 95.9577 105.212 96.5183 104.965 97.2108C104.717 97.9032 104.577 98.6452 104.544 99.4366C104.527 99.8982 104.527 100.36 104.544 100.822C104.577 101.613 104.717 102.355 104.965 103.047C105.212 103.74 105.617 104.3 106.178 104.729C106.755 105.158 107.523 105.372 108.48 105.372Z" fill="#DCDCDC"/>
<defs>
<clipPath id="clip0_1804_434">
<rect width="82" height="83" fill="white" transform="translate(16)"/>
</clipPath>
</defs>
</svg>
