<svg width="22" height="24" viewBox="0 0 22 24" fill="none" xmlns="http://www.w3.org/2000/svg">
<path fill-rule="evenodd" clip-rule="evenodd" d="M11 0C7.68629 0 5 2.68629 5 6C5 9.31371 7.68629 12 11 12C14.3137 12 17 9.31371 17 6C17 2.68629 14.3137 0 11 0ZM6.71429 6C6.71429 3.63343 8.63343 1.71429 11 1.71429C13.3666 1.71429 15.2857 3.63343 15.2857 6C15.2857 8.36657 13.3666 10.2857 11 10.2857C8.63343 10.2857 6.71429 8.36657 6.71429 6Z" fill="#4275D8"/>
<path fill-rule="evenodd" clip-rule="evenodd" d="M3.8958 14C2.77889 14 1.6569 14.5509 1.11537 15.6267C0.671994 16.5067 0.129623 17.815 0.0111636 19.1684C-0.0759889 20.17 0.347074 21.2017 1.28291 21.775C2.7645 22.6808 5.81738 24 11 24C16.1826 24 19.2355 22.6808 20.7171 21.775C21.6529 21.2017 22.076 20.17 21.9888 19.1684C21.8704 17.815 21.328 16.5067 20.8846 15.6267C20.3431 14.5509 19.2211 14 18.1042 14H3.8958ZM2.63165 16.3667C2.84319 15.9459 3.31619 15.6667 3.8958 15.6667H18.1042C18.6838 15.6667 19.1568 15.9459 19.3683 16.3667C19.7745 17.1734 20.2111 18.2625 20.3025 19.3108C20.3431 19.7767 20.1459 20.1617 19.8244 20.3592C18.617 21.0975 15.8746 22.3333 11 22.3333C6.12538 22.3333 3.38305 21.0975 2.1756 20.3592C1.85407 20.1617 1.65692 19.7767 1.69753 19.3108C1.78892 18.2625 2.2255 17.1734 2.63165 16.3667Z" fill="#4275D8"/>
</svg>
