<svg width="26" height="26" viewBox="0 0 26 26" fill="none" xmlns="http://www.w3.org/2000/svg">
<circle cx="7.5" cy="11.5" r="1.5" fill="#4275D8"/>
<circle cx="19.5" cy="11.5" r="1.5" fill="#4275D8"/>
<path d="M9.5 17C9.5 17 11.7229 19.5 14 19.5C16.2771 19.5 18.5 17 18.5 17" stroke="#4275D8" stroke-width="2"/>
<path d="M8 1C8 1 9.16877 4.42752 11 6C12.6993 7.45922 16.2403 8.21028 16.2403 8.21028" stroke="#4275D8" stroke-width="2"/>
<path d="M13 0C16.269 3.89821e-08 19.418 1.23157 21.8196 3.44933C24.2212 5.6671 25.6991 8.70825 25.9589 11.9669C26.2187 15.2255 25.2412 18.4624 23.2214 21.0327C21.2015 23.6029 18.2874 25.3179 15.0597 25.8358C11.832 26.3537 8.52768 25.6366 5.80503 23.8274C3.08238 22.0181 1.14128 19.2496 0.368487 16.0732C-0.404312 12.8969 0.0479149 9.54606 1.63507 6.68824C3.22222 3.83042 5.82778 1.67545 8.93264 0.65267L9.47922 2.31193C6.7916 3.19726 4.53618 5.06265 3.16231 7.53643C1.78844 10.0102 1.39699 12.9108 2.06593 15.6603C2.73488 18.4097 4.41513 20.8063 6.7719 22.3724C9.12868 23.9385 11.989 24.5592 14.7829 24.1109C17.5769 23.6626 20.0993 22.1781 21.8478 19.9532C23.5962 17.7284 24.4423 14.9264 24.2174 12.1057C23.9926 9.28498 22.7132 6.65251 20.6344 4.73277C18.5555 2.81303 15.8297 1.74697 13 1.74697V0Z" fill="#4275D8"/>
</svg>
