<svg width="25" height="25" viewBox="0 0 25 25" fill="none" xmlns="http://www.w3.org/2000/svg">
<path fill-rule="evenodd" clip-rule="evenodd" d="M7.14286 0C7.63571 0 8.03571 0.401786 8.03571 0.892857V1.78571H16.9643V0.892857C16.9643 0.401786 17.3643 0 17.8571 0C18.35 0 18.75 0.401786 18.75 0.892857V1.78571H20.5357C23.0009 1.78571 25 3.78571 25 6.25V20.5357C25 23 23.0009 25 20.5357 25H4.46429C1.99911 25 0 23 0 20.5357V6.25C0 3.78571 1.99911 1.78571 4.46429 1.78571H6.25V0.892857C6.25 0.401786 6.65 0 7.14286 0ZM6.25 3.57143H4.46429C2.98482 3.57143 1.78571 4.76786 1.78571 6.25V8.03571H23.2143V6.25C23.2143 4.76786 22.0152 3.57143 20.5357 3.57143H18.75V4.46429C18.75 4.95536 18.35 5.35714 17.8571 5.35714C17.3643 5.35714 16.9643 4.95536 16.9643 4.46429V3.57143H8.03571V4.46429C8.03571 4.95536 7.63571 5.35714 7.14286 5.35714C6.65 5.35714 6.25 4.95536 6.25 4.46429V3.57143ZM23.2143 9.82143H1.78571V20.5357C1.78571 22.0179 2.98482 23.2143 4.46429 23.2143H20.5357C22.0152 23.2143 23.2143 22.0179 23.2143 20.5357V9.82143ZM5.35714 14.2857C5.35714 13.7946 5.75714 13.3929 6.25 13.3929H8.03571C8.52857 13.3929 8.92857 13.7946 8.92857 14.2857C8.92857 14.7768 8.52857 15.1786 8.03571 15.1786H6.25C5.75714 15.1786 5.35714 14.7768 5.35714 14.2857ZM10.7143 14.2857C10.7143 13.7946 11.1143 13.3929 11.6071 13.3929H13.3929C13.8857 13.3929 14.2857 13.7946 14.2857 14.2857C14.2857 14.7768 13.8857 15.1786 13.3929 15.1786H11.6071C11.1143 15.1786 10.7143 14.7768 10.7143 14.2857ZM16.0714 14.2857C16.0714 13.7946 16.4714 13.3929 16.9643 13.3929H18.75C19.2429 13.3929 19.6429 13.7946 19.6429 14.2857C19.6429 14.7768 19.2429 15.1786 18.75 15.1786H16.9643C16.4714 15.1786 16.0714 14.7768 16.0714 14.2857ZM5.35714 18.75C5.35714 18.2589 5.75714 17.8571 6.25 17.8571H8.03571C8.52857 17.8571 8.92857 18.2589 8.92857 18.75C8.92857 19.2411 8.52857 19.6429 8.03571 19.6429H6.25C5.75714 19.6429 5.35714 19.2411 5.35714 18.75ZM10.7143 18.75C10.7143 18.2589 11.1143 17.8571 11.6071 17.8571H13.3929C13.8857 17.8571 14.2857 18.2589 14.2857 18.75C14.2857 19.2411 13.8857 19.6429 13.3929 19.6429H11.6071C11.1143 19.6429 10.7143 19.2411 10.7143 18.75ZM16.0714 18.75C16.0714 18.2589 16.4714 17.8571 16.9643 17.8571H18.75C19.2429 17.8571 19.6429 18.2589 19.6429 18.75C19.6429 19.2411 19.2429 19.6429 18.75 19.6429H16.9643C16.4714 19.6429 16.0714 19.2411 16.0714 18.75Z" fill="#4275D8"/>
</svg>
