<svg width="28" height="28" viewBox="0 0 28 28" fill="none" xmlns="http://www.w3.org/2000/svg">
<path d="M15.1662 17.2085H13.9996C13.5212 17.2085 13.1246 16.8118 13.1246 16.3335C13.1246 15.8552 13.5212 15.4585 13.9996 15.4585H15.1662C15.9712 15.4585 16.6246 14.8052 16.6246 14.0002V3.2085H6.99958C5.62291 3.2085 4.36288 3.95514 3.68621 5.15681C3.45288 5.57681 2.91626 5.72852 2.49626 5.49519C2.07626 5.26186 1.92455 4.72517 2.15788 4.30517C3.13788 2.55517 4.99291 1.4585 6.99958 1.4585H17.4996C17.9779 1.4585 18.3746 1.85516 18.3746 2.3335V14.0002C18.3746 15.7735 16.9396 17.2085 15.1662 17.2085Z" fill="#4275D8"/>
<path d="M22.1668 24.2085H21.0002C20.5218 24.2085 20.1252 23.8118 20.1252 23.3335C20.1252 22.5285 19.4718 21.8752 18.6668 21.8752C17.8618 21.8752 17.2085 22.5285 17.2085 23.3335C17.2085 23.8118 16.8118 24.2085 16.3335 24.2085H11.6668C11.1885 24.2085 10.7918 23.8118 10.7918 23.3335C10.7918 22.5285 10.1385 21.8752 9.3335 21.8752C8.5285 21.8752 7.87516 22.5285 7.87516 23.3335C7.87516 23.8118 7.4785 24.2085 7.00016 24.2085H5.8335C3.4185 24.2085 1.4585 22.2485 1.4585 19.8335C1.4585 19.3552 1.85516 18.9585 2.3335 18.9585C2.81183 18.9585 3.2085 19.3552 3.2085 19.8335C3.2085 21.2802 4.38683 22.4585 5.8335 22.4585H6.2418C6.6268 21.1168 7.8635 20.1252 9.3335 20.1252C10.8035 20.1252 12.0402 21.1168 12.4252 22.4585H15.5868C15.9718 21.1168 17.2085 20.1252 18.6785 20.1252C20.1485 20.1252 21.3851 21.1168 21.7701 22.4585H22.1668C23.6135 22.4585 24.7918 21.2802 24.7918 19.8335V17.2085H22.1668C21.0468 17.2085 20.1252 16.2868 20.1252 15.1668V11.6668C20.1252 10.5468 21.0352 9.62516 22.1668 9.62516L20.9185 7.4435C20.6618 6.9885 20.1719 6.7085 19.6469 6.7085H18.3752V14.0002C18.3752 15.7735 16.9402 17.2085 15.1668 17.2085H14.0002C13.5218 17.2085 13.1252 16.8118 13.1252 16.3335C13.1252 15.8552 13.5218 15.4585 14.0002 15.4585H15.1668C15.9718 15.4585 16.6252 14.8052 16.6252 14.0002V5.8335C16.6252 5.35516 17.0218 4.9585 17.5002 4.9585H19.6469C20.8019 4.9585 21.8635 5.57685 22.4351 6.58018L24.4302 10.0685C24.5818 10.3368 24.5818 10.6752 24.4302 10.9435C24.2785 11.2118 23.9868 11.3752 23.6718 11.3752H22.1668C22.0035 11.3752 21.8752 11.5035 21.8752 11.6668V15.1668C21.8752 15.3302 22.0035 15.4585 22.1668 15.4585H25.6668C26.1452 15.4585 26.5418 15.8552 26.5418 16.3335V19.8335C26.5418 22.2485 24.5818 24.2085 22.1668 24.2085Z" fill="#4275D8"/>
<path d="M9.33333 26.5417C7.56 26.5417 6.125 25.1067 6.125 23.3333C6.125 21.56 7.56 20.125 9.33333 20.125C11.1067 20.125 12.5417 21.56 12.5417 23.3333C12.5417 25.1067 11.1067 26.5417 9.33333 26.5417ZM9.33333 21.875C8.52833 21.875 7.875 22.5283 7.875 23.3333C7.875 24.1383 8.52833 24.7917 9.33333 24.7917C10.1383 24.7917 10.7917 24.1383 10.7917 23.3333C10.7917 22.5283 10.1383 21.875 9.33333 21.875Z" fill="#4275D8"/>
<path d="M18.6668 26.5417C16.8935 26.5417 15.4585 25.1067 15.4585 23.3333C15.4585 21.56 16.8935 20.125 18.6668 20.125C20.4402 20.125 21.8752 21.56 21.8752 23.3333C21.8752 25.1067 20.4402 26.5417 18.6668 26.5417ZM18.6668 21.875C17.8618 21.875 17.2085 22.5283 17.2085 23.3333C17.2085 24.1383 17.8618 24.7917 18.6668 24.7917C19.4718 24.7917 20.1252 24.1383 20.1252 23.3333C20.1252 22.5283 19.4718 21.875 18.6668 21.875Z" fill="#4275D8"/>
<path d="M25.6667 17.2083H22.1667C21.0467 17.2083 20.125 16.2867 20.125 15.1667V11.6667C20.125 10.5467 21.0467 9.625 22.1667 9.625H23.6716C23.9866 9.625 24.2783 9.78834 24.43 10.0683L26.425 13.5683C26.495 13.6967 26.5417 13.8483 26.5417 14V16.3333C26.5417 16.8117 26.145 17.2083 25.6667 17.2083ZM22.1667 11.375C22.0033 11.375 21.875 11.5033 21.875 11.6667V15.1667C21.875 15.33 22.0033 15.4583 22.1667 15.4583H24.7917V14.2333L23.1583 11.375H22.1667Z" fill="#4275D8"/>
<path d="M9.3335 10.2085H2.3335C1.85516 10.2085 1.4585 9.81183 1.4585 9.3335C1.4585 8.85516 1.85516 8.4585 2.3335 8.4585H9.3335C9.81183 8.4585 10.2085 8.85516 10.2085 9.3335C10.2085 9.81183 9.81183 10.2085 9.3335 10.2085Z" fill="#4275D8"/>
<path d="M7.00016 13.7085H2.3335C1.85516 13.7085 1.4585 13.3118 1.4585 12.8335C1.4585 12.3552 1.85516 11.9585 2.3335 11.9585H7.00016C7.4785 11.9585 7.87516 12.3552 7.87516 12.8335C7.87516 13.3118 7.4785 13.7085 7.00016 13.7085Z" fill="#4275D8"/>
<path d="M4.66683 17.2085H2.3335C1.85516 17.2085 1.4585 16.8118 1.4585 16.3335C1.4585 15.8552 1.85516 15.4585 2.3335 15.4585H4.66683C5.14516 15.4585 5.54183 15.8552 5.54183 16.3335C5.54183 16.8118 5.14516 17.2085 4.66683 17.2085Z" fill="#4275D8"/>
</svg>
