<svg width="35" height="36" viewBox="0 0 35 36" fill="none" xmlns="http://www.w3.org/2000/svg">
<path d="M24.8789 23.9588L27.9281 27.1757L7.87876 27.176L12.3789 20.9587C12.3789 20.9587 9.35428 18.9409 8.37891 16.9587C7.25484 14.6744 7.17819 12.9064 7.87876 10.4587C8.53463 8.16724 11.3789 5.45874 11.3789 5.45874C11.3789 5.45874 14.0334 3.71388 16.3789 3.45874C19.2053 3.1513 21.3789 3.45874 23.3789 4.95874C25.549 6.58634 26.8501 8.29811 27.3789 10.9587C27.9172 13.6672 27.5 15.5 25.5 18C25.5 18 24 19.4587 18 20.9587" stroke="#4275D8" stroke-width="2"/>
<path d="M17.7788 6.65858L17.8789 13.9586L23.8789 13.9587" stroke="#4275D8" stroke-width="2"/>
</svg>
