<svg width="25" height="26" viewBox="0 0 25 26" fill="none" xmlns="http://www.w3.org/2000/svg">
<path d="M24.1279 25.0795H0.872093C0.395349 25.0795 0 24.6741 0 24.1853C0 23.6964 0.395349 23.291 0.872093 23.291H24.1279C24.6047 23.291 25 23.6964 25 24.1853C25 24.6741 24.6047 25.0795 24.1279 25.0795Z" fill="#4275D8"/>
<path d="M2.84868 24.1853H1.10449L1.16264 9.84167C1.16264 8.8282 1.61612 7.8863 2.39519 7.2663L10.5347 0.768153C11.6859 -0.149931 13.3022 -0.149931 14.465 0.768153L22.6045 7.25436C23.3719 7.87437 23.8371 8.84013 23.8371 9.84167V24.1853H22.0929V9.85361C22.0929 9.40053 21.8836 8.95938 21.5347 8.67323L13.3952 2.18701C12.8719 1.7697 12.1394 1.7697 11.6045 2.18701L3.46496 8.68516C3.11613 8.95939 2.90682 9.40053 2.90682 9.85361L2.84868 24.1853Z" fill="#4275D8"/>
<path d="M18.3747 24.5416H6.70801C6.22967 24.5416 5.83301 24.1449 5.83301 23.6666V12.5833C5.83301 11.1366 7.01134 9.95825 8.45801 9.95825H16.6247C18.0713 9.95825 19.2497 11.1366 19.2497 12.5833V23.6666C19.2497 24.1449 18.853 24.5416 18.3747 24.5416ZM7.58301 22.7916H17.4997V12.5833C17.4997 12.1049 17.103 11.7083 16.6247 11.7083H8.45801C7.97967 11.7083 7.58301 12.1049 7.58301 12.5833V22.7916Z" fill="#4275D8"/>
<path d="M10.208 19.5833C9.72967 19.5833 9.33301 19.1866 9.33301 18.7083V16.9583C9.33301 16.4799 9.72967 16.0833 10.208 16.0833C10.6863 16.0833 11.083 16.4799 11.083 16.9583V18.7083C11.083 19.1866 10.6863 19.5833 10.208 19.5833Z" fill="#4275D8"/>
<path d="M14.2915 7.625H10.7915C10.3132 7.625 9.9165 7.22833 9.9165 6.75C9.9165 6.27167 10.3132 5.875 10.7915 5.875H14.2915C14.7698 5.875 15.1665 6.27167 15.1665 6.75C15.1665 7.22833 14.7698 7.625 14.2915 7.625Z" fill="#4275D8"/>
</svg>
