<svg width="16" height="16" viewBox="0 0 16 16" fill="none" xmlns="http://www.w3.org/2000/svg">
<rect width="16" height="16" rx="3" fill="#4275D8"/>
<path d="M7.99919 13C7.18215 13 6.48122 12.8565 5.89639 12.5694C5.32016 12.2824 4.86864 11.8611 4.54183 11.3056C4.22361 10.75 4.0473 10.0602 4.0129 9.23611C4.0043 8.85648 4 8.44907 4 8.01389C4 7.5787 4.0043 7.16204 4.0129 6.76389C4.0473 5.95833 4.22791 5.27778 4.55473 4.72222C4.88154 4.15741 5.33736 3.73148 5.92219 3.44444C6.50702 3.14815 7.19935 3 7.99919 3C8.56682 3 9.09145 3.0787 9.57307 3.23611C10.0547 3.38426 10.4761 3.60648 10.8373 3.90278C11.1985 4.18981 11.4781 4.54167 11.6759 4.95833C11.8823 5.36574 11.9898 5.8287 11.9984 6.34722C12.007 6.43056 11.9812 6.5 11.921 6.55556C11.8694 6.61111 11.8049 6.63889 11.7275 6.63889H9.98589C9.87408 6.63889 9.78808 6.61574 9.72788 6.56944C9.66767 6.51389 9.61607 6.41667 9.57307 6.27778C9.45266 5.78704 9.25485 5.4537 8.97964 5.27778C8.71303 5.09259 8.38191 5 7.98629 5C7.51327 5 7.13915 5.14352 6.86394 5.43056C6.58873 5.70833 6.43822 6.17593 6.41242 6.83333C6.38662 7.59259 6.38662 8.37037 6.41242 9.16667C6.43822 9.82407 6.58873 10.2963 6.86394 10.5833C7.13915 10.8611 7.51327 11 7.98629 11C8.38191 11 8.71733 10.9074 8.99254 10.7222C9.26775 10.537 9.46126 10.2037 9.57307 9.72222C9.60747 9.58333 9.65477 9.49074 9.71498 9.44445C9.78378 9.38889 9.87408 9.36111 9.98589 9.36111H11.7275C11.8049 9.36111 11.8694 9.38889 11.921 9.44445C11.9812 9.5 12.007 9.56945 11.9984 9.65278C11.9898 10.1713 11.8823 10.6389 11.6759 11.0556C11.4781 11.463 11.1985 11.8148 10.8373 12.1111C10.4761 12.3981 10.0547 12.6204 9.57307 12.7778C9.09145 12.9259 8.56682 13 7.99919 13Z" fill="white"/>
</svg>
