<svg width="69" height="53" viewBox="0 0 69 53" fill="none" xmlns="http://www.w3.org/2000/svg">
<path d="M39.6291 1.09608C35.9407 1.54211 30.5541 3.37769 30.0223 4.33837C29.7307 4.90448 29.8336 5.55637 30.2796 5.98524C30.7943 6.51704 31.3604 6.51704 32.3897 6.0024C34.3282 5.02456 37.5018 4.13251 39.9378 3.87518L41.173 3.73794V5.33335C41.173 6.80868 41.2073 6.98023 41.6019 7.35764C41.8592 7.63212 42.2194 7.78651 42.5454 7.78651C42.8713 7.78651 43.2316 7.63212 43.4889 7.35764C43.8835 6.98023 43.9178 6.80868 43.9178 5.33335V3.73794L45.1701 3.87518C47.6919 4.13251 50.7455 5.02456 52.9241 6.10533C54.2279 6.77437 56.5095 8.24969 57.3501 8.98736L58.002 9.55347L56.8698 10.7029C55.5831 12.0409 55.4288 12.6242 56.1836 13.3619C56.9212 14.1167 57.5045 13.9623 58.8426 12.6585L60.0091 11.5434L60.661 12.3326C63.1485 15.2832 65.087 19.795 65.5845 23.8435L65.8075 25.5419L64.1091 25.6277C62.5824 25.6963 62.3765 25.7477 62.0849 26.1252C61.6388 26.6741 61.6731 27.4461 62.1878 27.9436C62.5652 28.3381 62.7368 28.3725 64.2121 28.3725H65.8075L65.6702 29.6076C65.4129 32.1465 64.5209 35.2001 63.4401 37.3788C62.7711 38.6826 61.2957 40.9642 60.5581 41.8048L59.992 42.4567L58.8426 41.3244C57.5045 40.0378 56.9212 39.8834 56.1836 40.6382C55.4288 41.3759 55.5831 41.9592 56.8869 43.2973L58.002 44.4638L56.9727 45.3044C53.9191 47.7747 49.2015 49.7132 45.2559 50.1249L43.9178 50.2622V48.6668C43.9178 47.1914 43.8835 47.0199 43.4889 46.6425C42.94 46.0764 42.1508 46.0764 41.6019 46.6425C41.2073 47.0199 41.173 47.1914 41.173 48.6668V50.2965L40.3667 50.2107C38.0165 50.0048 34.9801 49.1814 32.7842 48.1693C31.2746 47.4831 30.8286 47.4488 30.2796 48.0149C29.765 48.5124 29.7135 49.2672 30.1595 49.799C30.5198 50.245 33.1445 51.3944 35.1345 51.9777C37.7763 52.7325 39.509 52.9727 42.5454 52.9727C46.7827 52.9727 49.9049 52.2693 53.6961 50.4852C56.6296 49.0956 58.894 47.5002 61.0556 45.3387C71.1598 35.183 71.0397 18.5255 60.7982 8.42125C57.0756 4.73293 52.3066 2.29693 47.0057 1.3534C45.1701 1.02746 41.3274 0.890221 39.6291 1.09608Z" fill="#4275D8"/>
<path d="M16.8976 9.58838C16.6231 9.8457 16.4688 10.206 16.4688 10.5319C16.4688 10.8578 16.6231 11.2181 16.8976 11.4754L17.3093 11.9043H25.2178H33.1262L33.5379 11.4754C33.8124 11.2181 33.9668 10.8578 33.9668 10.5319C33.9668 10.206 33.8124 9.8457 33.5379 9.58838L33.1262 9.1595H25.2178H17.3093L16.8976 9.58838Z" fill="#4275D8"/>
<path d="M48.9611 18.6286L45.3071 22.2483L44.4151 21.9738C41.7389 21.0989 38.7711 22.2139 37.656 24.5127C37.0041 25.8336 36.9012 27.4119 37.3644 28.8014L37.7075 29.8136L37.0384 30.5512C36.2322 31.4262 36.1292 32.2153 36.764 32.7985C37.3987 33.399 38.1364 33.296 39.0284 32.4726L39.8004 31.7521L40.6753 32.0437C43.3171 32.8843 46.2506 31.7864 47.4172 29.5391C48.0862 28.201 48.2063 26.6228 47.726 25.1989L47.3657 24.1696L50.9682 20.5499C54.1591 17.3419 54.5536 16.8788 54.5536 16.3984C54.5536 16.021 54.3992 15.6951 54.1248 15.4206C53.8503 15.1461 53.5243 14.9917 53.1469 14.9917C52.6666 14.9917 52.2034 15.3863 48.9611 18.6286ZM43.9004 24.7357C44.8439 25.1989 45.2042 25.8336 45.2042 27.0002C45.2042 28.1667 44.8439 28.8014 43.9004 29.2646C42.6996 29.8822 41.0012 29.522 40.2464 28.4927C39.9719 28.1324 39.8862 27.7378 39.8862 27.0002C39.8862 26.2625 39.9719 25.8679 40.2464 25.5077C40.7268 24.8558 41.6188 24.4269 42.5452 24.4269C42.974 24.4269 43.5745 24.5642 43.9004 24.7357Z" fill="#4275D8"/>
<path d="M8.66325 17.8228C8.38877 18.0801 8.23438 18.4403 8.23438 18.7663C8.23438 19.0922 8.38877 19.4525 8.66325 19.7098L9.07497 20.1387H19.9684C27.7052 20.1387 30.9818 20.0872 31.2906 19.95C31.7881 19.7098 32.1655 18.9378 31.994 18.4232C31.9254 18.2345 31.7195 17.9085 31.5136 17.737C31.1705 17.411 30.8618 17.3939 20.1228 17.3939H9.07497L8.66325 17.8228Z" fill="#4275D8"/>
<path d="M0.428874 26.0571C0.154395 26.3145 0 26.6747 0 27.0006C0 27.3266 0.154395 27.6868 0.428874 27.9442L0.840593 28.373H15.0964H29.3521L29.7638 27.9442C30.33 27.3952 30.33 26.6061 29.7638 26.0571L29.3521 25.6283H15.0964H0.840593L0.428874 26.0571Z" fill="#4275D8"/>
<path d="M8.66325 34.2915C8.38877 34.5488 8.23438 34.9091 8.23438 35.235C8.23438 35.561 8.38877 35.9212 8.66325 36.1785L9.07497 36.6074H19.9684C27.7052 36.6074 30.9818 36.556 31.2906 36.4187C31.7881 36.1785 32.1655 35.4066 31.994 34.8919C31.9254 34.7032 31.7195 34.3773 31.5136 34.2057C31.1705 33.8798 30.8618 33.8626 20.1228 33.8626H9.07497L8.66325 34.2915Z" fill="#4275D8"/>
<path d="M16.8976 42.5259C16.6231 42.7832 16.4688 43.1435 16.4688 43.4694C16.4688 43.7953 16.6231 44.1556 16.8976 44.4129L17.3093 44.8418H25.2178H33.1262L33.5379 44.4129C33.8124 44.1556 33.9668 43.7953 33.9668 43.4694C33.9668 43.1435 33.8124 42.7832 33.5379 42.5259L33.1262 42.097H25.2178H17.3093L16.8976 42.5259Z" fill="#4275D8"/>
</svg>
