<svg width="138" height="28" viewBox="0 0 138 28" fill="none" xmlns="http://www.w3.org/2000/svg">
<path d="M9.28926 21.6774C7.39145 21.6774 5.76334 21.3663 4.40491 20.7441C3.06645 20.1219 2.01767 19.2086 1.25854 18.0043C0.519399 16.8 0.109873 15.3047 0.0299653 13.5183C0.00998845 12.6953 0 11.8122 0 10.8688C0 9.92545 0.00998845 9.02222 0.0299653 8.15914C0.109873 6.4129 0.529388 4.93763 1.28851 3.73333C2.04763 2.50896 3.10641 1.58566 4.46484 0.963441C5.82327 0.321147 7.43141 0 9.28926 0C10.6077 0 11.8263 0.17061 12.945 0.511829C14.0637 0.832975 15.0426 1.3147 15.8816 1.95699C16.7207 2.57921 17.3699 3.34194 17.8294 4.24516C18.3088 5.12831 18.5585 6.1319 18.5785 7.25591C18.5985 7.43656 18.5386 7.5871 18.3987 7.70753C18.2789 7.82796 18.129 7.88817 17.9492 7.88817H13.9039C13.6442 7.88817 13.4445 7.83799 13.3046 7.73764C13.1648 7.6172 13.0449 7.40645 12.945 7.10538C12.6654 6.04158 12.2059 5.319 11.5666 4.93764C10.9473 4.5362 10.1782 4.33548 9.25929 4.33548C8.16056 4.33548 7.29157 4.64659 6.65231 5.26882C6.01305 5.87097 5.66345 6.88459 5.60352 8.30968C5.54359 9.95556 5.54359 11.6416 5.60352 13.3677C5.66345 14.7928 6.01305 15.8165 6.65231 16.4387C7.29157 17.0409 8.16056 17.3419 9.25929 17.3419C10.1782 17.3419 10.9573 17.1412 11.5966 16.7398C12.2359 16.3384 12.6853 15.6158 12.945 14.572C13.0249 14.271 13.1348 14.0703 13.2746 13.9699C13.4345 13.8495 13.6442 13.7892 13.9039 13.7892H17.9492C18.129 13.7892 18.2789 13.8495 18.3987 13.9699C18.5386 14.0903 18.5985 14.2409 18.5785 14.4215C18.5585 15.5455 18.3088 16.5591 17.8294 17.4624C17.3699 18.3455 16.7207 19.1082 15.8816 19.7505C15.0426 20.3728 14.0637 20.8545 12.945 21.1957C11.8263 21.5168 10.6077 21.6774 9.28926 21.6774Z" fill="#4275D8"/>
<path d="M26.0743 21.6774C24.9955 21.6774 24.0267 21.4767 23.1677 21.0753C22.3286 20.6538 21.6594 20.0918 21.16 19.3892C20.6606 18.6867 20.4108 17.8939 20.4108 17.0108C20.4108 15.5857 20.9902 14.4617 22.1488 13.6387C23.3075 12.7957 24.8457 12.2237 26.7635 11.9226L30.5092 11.3505V10.929C30.5092 10.2065 30.3593 9.65448 30.0597 9.27312C29.76 8.89176 29.2107 8.70108 28.4116 8.70108C27.8522 8.70108 27.3928 8.81147 27.0332 9.03226C26.6936 9.25305 26.4239 9.55412 26.2241 9.93548C26.0443 10.1964 25.7946 10.3269 25.475 10.3269H22.1189C21.8991 10.3269 21.7293 10.2667 21.6095 10.1462C21.4896 10.0057 21.4397 9.84516 21.4596 9.66452C21.4596 9.30323 21.5895 8.89176 21.8492 8.43011C22.1289 7.94839 22.5484 7.4767 23.1077 7.01505C23.6671 6.55341 24.3863 6.17204 25.2652 5.87097C26.1442 5.56989 27.203 5.41935 28.4416 5.41935C29.7401 5.41935 30.8488 5.56989 31.7677 5.87097C32.6867 6.17204 33.4258 6.59355 33.9852 7.13548C34.5645 7.67742 34.994 8.31971 35.2737 9.06237C35.5533 9.78495 35.6932 10.5878 35.6932 11.471V20.6237C35.6932 20.8444 35.6133 21.0251 35.4535 21.1656C35.3136 21.3061 35.1438 21.3763 34.944 21.3763H31.4681C31.2483 21.3763 31.0685 21.3061 30.9287 21.1656C30.7888 21.0251 30.7189 20.8444 30.7189 20.6237V19.5699C30.4592 19.9513 30.1096 20.3025 29.6701 20.6237C29.2306 20.9448 28.7113 21.1957 28.1119 21.3763C27.5326 21.5771 26.8534 21.6774 26.0743 21.6774ZM27.4827 18.2452C28.062 18.2452 28.5814 18.1247 29.0409 17.8839C29.5203 17.6229 29.8899 17.2315 30.1496 16.7097C30.4293 16.1677 30.5691 15.4953 30.5691 14.6925V14.271L28.022 14.7226C27.0831 14.8832 26.3939 15.1341 25.9544 15.4753C25.5349 15.7964 25.3252 16.1778 25.3252 16.6194C25.3252 16.9606 25.4251 17.2516 25.6248 17.4925C25.8246 17.7333 26.0843 17.924 26.4039 18.0645C26.7235 18.1849 27.0831 18.2452 27.4827 18.2452Z" fill="#4275D8"/>
<path d="M48.6036 21.6774C47.4848 21.6774 46.5459 21.4867 45.7868 21.1054C45.0477 20.724 44.4384 20.2423 43.9589 19.6602V20.6237C43.9589 20.8444 43.879 21.0251 43.7192 21.1656C43.5794 21.3061 43.4096 21.3763 43.2098 21.3763H39.8237C39.604 21.3763 39.4242 21.3061 39.2843 21.1656C39.1445 21.0251 39.0746 20.8444 39.0746 20.6237V0.752688C39.0746 0.5319 39.1445 0.351255 39.2843 0.210753C39.4242 0.0702511 39.604 0 39.8237 0H43.4795C43.6992 0 43.879 0.0702511 44.0189 0.210753C44.1587 0.351255 44.2286 0.5319 44.2286 0.752688V7.1957C44.7081 6.67384 45.3074 6.25233 46.0265 5.93118C46.7657 5.58996 47.6247 5.41935 48.6036 5.41935C49.6024 5.41935 50.4814 5.58996 51.2405 5.93118C52.0196 6.25233 52.6788 6.72402 53.2182 7.34624C53.7576 7.96846 54.1771 8.71111 54.4768 9.57419C54.7764 10.4373 54.9462 11.4108 54.9862 12.4946C55.0062 12.876 55.0161 13.2272 55.0161 13.5484C55.0161 13.8495 55.0062 14.2007 54.9862 14.6022C54.9462 15.7262 54.7664 16.7297 54.4468 17.6129C54.1471 18.476 53.7276 19.2186 53.1883 19.8409C52.6489 20.443 51.9996 20.9047 51.2405 21.2258C50.4814 21.5269 49.6024 21.6774 48.6036 21.6774ZM46.9854 17.643C47.6646 17.643 48.194 17.5025 48.5736 17.2215C48.9532 16.9405 49.2228 16.5591 49.3827 16.0774C49.5624 15.5957 49.6723 15.0638 49.7123 14.4817C49.7522 13.8595 49.7522 13.2373 49.7123 12.6151C49.6723 12.033 49.5624 11.5011 49.3827 11.0194C49.2228 10.5376 48.9532 10.1563 48.5736 9.87527C48.194 9.59426 47.6646 9.45376 46.9854 9.45376C46.3661 9.45376 45.8567 9.59426 45.4572 9.87527C45.0577 10.1362 44.758 10.4875 44.5582 10.929C44.3585 11.3505 44.2486 11.8122 44.2286 12.314C44.2086 12.6953 44.1987 13.0667 44.1987 13.428C44.1987 13.7892 44.2086 14.1706 44.2286 14.572C44.2486 15.114 44.3485 15.6158 44.5283 16.0774C44.7081 16.5391 44.9977 16.9204 45.3973 17.2215C45.7968 17.5025 46.3262 17.643 46.9854 17.643Z" fill="#4275D8"/>
<path d="M65.1702 21.6774C62.8129 21.6774 60.9351 21.0351 59.5367 19.7505C58.1383 18.466 57.4092 16.5591 57.3492 14.0301C57.3492 13.8896 57.3492 13.709 57.3492 13.4882C57.3492 13.2674 57.3492 13.0968 57.3492 12.9763C57.4092 11.3907 57.7588 10.0358 58.398 8.91183C59.0573 7.76774 59.9562 6.90466 61.0949 6.32258C62.2536 5.72043 63.602 5.41935 65.1402 5.41935C66.8982 5.41935 68.3465 5.77061 69.4852 6.47312C70.6439 7.17563 71.5128 8.12903 72.0922 9.33333C72.6715 10.5376 72.9612 11.9125 72.9612 13.4581V14.1806C72.9612 14.4014 72.8813 14.5821 72.7215 14.7226C72.5816 14.8631 72.4118 14.9333 72.212 14.9333H62.6231C62.6231 14.9534 62.6231 14.9835 62.6231 15.0237C62.6231 15.0638 62.6231 15.1039 62.6231 15.1441C62.6431 15.7262 62.743 16.2581 62.9228 16.7398C63.1026 17.2215 63.3822 17.6029 63.7618 17.8839C64.1414 18.1649 64.6008 18.3054 65.1402 18.3054C65.5397 18.3054 65.8694 18.2452 66.1291 18.1247C66.4088 17.9842 66.6385 17.8337 66.8183 17.6731C66.9981 17.4925 67.1379 17.3419 67.2378 17.2215C67.4176 17.0208 67.5574 16.9004 67.6573 16.8602C67.7772 16.8 67.957 16.7699 68.1967 16.7699H71.9124C72.1122 16.7699 72.272 16.8301 72.3918 16.9505C72.5317 17.0509 72.5916 17.2014 72.5716 17.4022C72.5516 17.7434 72.3818 18.1548 72.0622 18.6366C71.7426 19.1183 71.2731 19.6 70.6538 20.0817C70.0545 20.5434 69.2954 20.9247 68.3765 21.2258C67.4575 21.5269 66.3888 21.6774 65.1702 21.6774ZM62.6231 11.9527H67.6873V11.8925C67.6873 11.2502 67.5874 10.6882 67.3876 10.2065C67.2078 9.72473 66.9182 9.3534 66.5186 9.09247C66.1391 8.83154 65.6796 8.70108 65.1402 8.70108C64.6008 8.70108 64.1414 8.83154 63.7618 9.09247C63.4022 9.3534 63.1225 9.72473 62.9228 10.2065C62.723 10.6882 62.6231 11.2502 62.6231 11.8925V11.9527Z" fill="#4275D8"/>
<path d="M76.5196 21.3763C76.2998 21.3763 76.12 21.3061 75.9802 21.1656C75.8403 21.0251 75.7704 20.8444 75.7704 20.6237V0.752688C75.7704 0.5319 75.8403 0.351255 75.9802 0.210753C76.12 0.0702511 76.2998 0 76.5196 0H80.0555C80.2752 0 80.455 0.0702511 80.5948 0.210753C80.7347 0.351255 80.8046 0.5319 80.8046 0.752688V20.6237C80.8046 20.8444 80.7347 21.0251 80.5948 21.1656C80.455 21.3061 80.2752 21.3763 80.0555 21.3763H76.5196Z" fill="#4275D8"/>
<path d="M90.6372 21.3763C90.4374 21.3763 90.2776 21.3161 90.1578 21.1957C90.0379 21.0753 89.978 20.9147 89.978 20.714V2.10753H84.0448C83.8451 2.10753 83.6852 2.04731 83.5654 1.92688C83.4455 1.80645 83.3856 1.64588 83.3856 1.44516V0.993548C83.3856 0.77276 83.4455 0.602151 83.5654 0.481721C83.6852 0.36129 83.8451 0.301075 84.0448 0.301075H97.769C97.9887 0.301075 98.1585 0.36129 98.2784 0.481721C98.3982 0.602151 98.4582 0.77276 98.4582 0.993548V1.44516C98.4582 1.64588 98.3982 1.80645 98.2784 1.92688C98.1585 2.04731 97.9887 2.10753 97.769 2.10753H91.8658V20.714C91.8658 20.9147 91.8058 21.0753 91.686 21.1957C91.5661 21.3161 91.3963 21.3763 91.1766 21.3763H90.6372Z" fill="#423E48"/>
<path d="M104.661 21.6774C103.223 21.6774 102.014 21.3763 101.035 20.7742C100.077 20.172 99.3374 19.3491 98.818 18.3054C98.3186 17.2617 98.0489 16.0975 98.0089 14.8129C97.9889 14.5118 97.979 14.0903 97.979 13.5484C97.979 13.0065 97.9889 12.5849 98.0089 12.2839C98.0489 10.9792 98.3186 9.81505 98.818 8.7914C99.3374 7.74767 100.077 6.92473 101.035 6.32258C102.014 5.72043 103.223 5.41935 104.661 5.41935C106.1 5.41935 107.298 5.72043 108.257 6.32258C109.236 6.92473 109.975 7.74767 110.474 8.7914C110.994 9.81505 111.274 10.9792 111.314 12.2839C111.334 12.5849 111.343 13.0065 111.343 13.5484C111.343 14.0903 111.334 14.5118 111.314 14.8129C111.274 16.0975 110.994 17.2617 110.474 18.3054C109.975 19.3491 109.236 20.172 108.257 20.7742C107.298 21.3763 106.1 21.6774 104.661 21.6774ZM104.661 19.9312C106.06 19.9312 107.198 19.4796 108.077 18.5763C108.956 17.6731 109.426 16.3685 109.486 14.6624C109.506 14.3613 109.516 13.99 109.516 13.5484C109.516 13.1068 109.506 12.7355 109.486 12.4344C109.426 10.7082 108.956 9.40358 108.077 8.52043C107.198 7.6172 106.06 7.16559 104.661 7.16559C103.263 7.16559 102.124 7.6172 101.245 8.52043C100.366 9.40358 99.8967 10.7082 99.8368 12.4344C99.8168 12.7355 99.8068 13.1068 99.8068 13.5484C99.8068 13.99 99.8168 14.3613 99.8368 14.6624C99.8967 16.3685 100.366 17.6731 101.245 18.5763C102.124 19.4796 103.263 19.9312 104.661 19.9312Z" fill="#423E48"/>
<path d="M116.097 21.3763C115.897 21.3763 115.737 21.3161 115.617 21.1957C115.497 21.0753 115.437 20.9147 115.437 20.714V6.4129C115.437 6.21219 115.497 6.05161 115.617 5.93118C115.737 5.79068 115.897 5.72043 116.097 5.72043H116.576C116.776 5.72043 116.936 5.79068 117.055 5.93118C117.195 6.05161 117.265 6.21219 117.265 6.4129V7.79785C117.625 7.09534 118.144 6.57348 118.823 6.23226C119.503 5.89104 120.342 5.72043 121.34 5.72043H122.449C122.649 5.72043 122.809 5.78064 122.929 5.90108C123.048 6.02151 123.108 6.18208 123.108 6.3828V6.8043C123.108 7.00502 123.048 7.16559 122.929 7.28602C122.809 7.40645 122.649 7.46667 122.449 7.46667H121.161C119.962 7.46667 119.013 7.81792 118.314 8.52043C117.615 9.22294 117.265 10.1763 117.265 11.3806V20.714C117.265 20.9147 117.195 21.0753 117.055 21.1957C116.936 21.3161 116.776 21.3763 116.576 21.3763H116.097Z" fill="#423E48"/>
<path d="M131.288 28C130.009 28 128.96 27.8294 128.141 27.4882C127.342 27.147 126.713 26.7254 126.254 26.2237C125.814 25.7419 125.504 25.2502 125.325 24.7484C125.145 24.2667 125.045 23.8753 125.025 23.5742C125.005 23.3735 125.065 23.2029 125.205 23.0624C125.345 22.9419 125.504 22.8817 125.684 22.8817H126.104C126.264 22.8817 126.403 22.9118 126.523 22.972C126.643 23.0523 126.743 23.233 126.823 23.514C126.943 23.8351 127.133 24.2065 127.392 24.628C127.672 25.0695 128.101 25.4509 128.681 25.772C129.28 26.0932 130.099 26.2538 131.138 26.2538C132.237 26.2538 133.156 26.1133 133.895 25.8323C134.634 25.5513 135.193 25.0495 135.573 24.3269C135.972 23.6244 136.172 22.6409 136.172 21.3763V19.2989C135.673 19.9814 135.013 20.5534 134.194 21.0151C133.395 21.4566 132.377 21.6774 131.138 21.6774C129.979 21.6774 128.99 21.4667 128.171 21.0452C127.372 20.6237 126.723 20.0616 126.224 19.3591C125.724 18.6566 125.355 17.8738 125.115 17.0108C124.875 16.1477 124.745 15.2746 124.725 14.3914C124.705 13.8294 124.705 13.2674 124.725 12.7054C124.745 11.8222 124.875 10.9491 125.115 10.086C125.355 9.22294 125.724 8.44014 126.224 7.73764C126.723 7.03513 127.372 6.47312 128.171 6.05161C128.99 5.63011 129.979 5.41935 131.138 5.41935C132.377 5.41935 133.395 5.65018 134.194 6.11183C135.013 6.57348 135.673 7.13548 136.172 7.79785V6.4129C136.172 6.21219 136.232 6.05161 136.352 5.93118C136.472 5.79068 136.632 5.72043 136.831 5.72043H137.311C137.511 5.72043 137.67 5.79068 137.79 5.93118C137.93 6.05161 138 6.21219 138 6.4129V21.0753C138 22.3599 137.81 23.524 137.431 24.5677C137.051 25.6115 136.372 26.4444 135.393 27.0667C134.434 27.6889 133.066 28 131.288 28ZM131.318 19.9312C132.456 19.9312 133.375 19.6602 134.075 19.1183C134.774 18.5763 135.283 17.9039 135.603 17.1011C135.942 16.2781 136.132 15.4552 136.172 14.6323C136.192 14.3312 136.202 13.9699 136.202 13.5484C136.202 13.1269 136.192 12.7656 136.172 12.4645C136.132 11.6416 135.942 10.8287 135.603 10.0258C135.283 9.20287 134.774 8.52043 134.075 7.97849C133.375 7.43656 132.456 7.16559 131.318 7.16559C130.159 7.16559 129.23 7.42652 128.531 7.94839C127.852 8.47025 127.362 9.15269 127.063 9.9957C126.763 10.8387 126.593 11.7419 126.553 12.7054C126.533 13.2674 126.533 13.8294 126.553 14.3914C126.593 15.3548 126.763 16.2581 127.063 17.1011C127.362 17.9441 127.852 18.6265 128.531 19.1484C129.23 19.6703 130.159 19.9312 131.318 19.9312Z" fill="#423E48"/>
</svg>
