<svg width="56" height="56" viewBox="0 0 56 56" fill="none" xmlns="http://www.w3.org/2000/svg">
<path d="M17.0226 0.120743C16.3518 0.263004 15.2522 1.03996 14.8233 1.67466C14.0975 2.73614 13.9326 4.24629 14.4274 5.36248L14.6584 5.86586L10.2818 10.2212C6.88383 13.6026 5.86115 14.5656 5.7072 14.5109C5.58624 14.4781 5.27833 14.3686 5.00342 14.2702C4.31064 14.0075 2.93607 14.0951 2.2323 14.4234C1.41855 14.8173 0.769757 15.452 0.362885 16.2727C0.0329896 16.9293 0 17.0935 0 17.9908C0 18.8444 0.0439861 19.0523 0.307903 19.5994C0.703778 20.3983 1.42955 21.1205 2.19931 21.4926L2.80411 21.7771V27.9381V34.099L2.10034 34.4492C1.2756 34.8541 0.692781 35.445 0.28591 36.3095C0.0439861 36.8239 0 37.0755 0 37.9072C0 38.7498 0.0439861 38.9796 0.296906 39.5159C0.879722 40.7634 2.14432 41.6388 3.52989 41.7592C4.15669 41.803 4.4316 41.7701 5.0804 41.5513L5.87215 41.2886L10.2818 45.6768L14.6914 50.065L14.4384 50.6012C14.0536 51.4329 14.0756 52.8883 14.4824 53.7419C15.725 56.3901 19.2989 56.784 21.1243 54.4532C21.3443 54.1796 21.5862 53.7637 21.6632 53.5339L21.8061 53.1181L28.0192 53.0853L34.2212 53.0634L34.4081 53.5339C35.0019 55.0879 36.7174 56.1384 38.3999 55.9852C40.8851 55.7554 42.5566 53.2056 41.7428 50.9295C41.6109 50.5684 41.4899 50.2182 41.4789 50.1416C41.4679 50.065 43.4033 48.0405 45.7785 45.633C49.7703 41.595 50.1222 41.2558 50.3421 41.3652C50.716 41.5731 51.6507 41.792 52.1345 41.792C52.7064 41.792 53.6411 41.5184 54.1469 41.1901C54.9936 40.6539 55.4775 40.0192 55.8074 39.0562C56.4342 37.2178 55.4775 35.0839 53.685 34.3507L53.0582 34.0881V27.9381V21.7771L53.718 21.4816C55.2136 20.8141 56.1373 19.2383 55.9833 17.6187C55.8624 16.2399 55.0046 15.0252 53.74 14.4234C52.9593 14.0622 51.6727 14.0075 50.76 14.3249L50.0452 14.5547L45.7236 10.254L41.3909 5.94247L41.6329 5.40625C42.5566 3.32707 41.3359 0.799217 39.1036 0.164516C38.3119 -0.0652885 37.7181 -0.0543442 36.9043 0.197346C35.7387 0.558468 34.705 1.52146 34.3641 2.57199L34.2322 2.94406L28.0192 2.92217L21.8061 2.88934L21.6742 2.49539C21.0693 0.744499 18.98 -0.316978 17.0226 0.120743ZM18.947 2.07956C20.4096 2.79086 20.4206 4.9357 18.958 5.67983C17.7044 6.31453 16.1539 5.50474 16.0219 4.1478C15.868 2.48445 17.4405 1.35731 18.947 2.07956ZM38.9607 2.07956C40.2803 2.7252 40.4452 4.61835 39.2466 5.52663C38.8837 5.81115 38.7518 5.84398 38.048 5.84398C37.3552 5.84398 37.2122 5.81115 36.8604 5.53757C36.2665 5.08891 35.9806 4.46515 36.0356 3.75385C36.1566 2.27653 37.6301 1.44486 38.9607 2.07956ZM34.4631 5.39531C34.815 6.25982 35.4528 6.9164 36.3215 7.34318C36.9923 7.67147 37.1353 7.7043 38.103 7.7043C38.9497 7.69336 39.2356 7.64959 39.5985 7.46355L40.0384 7.22281L44.404 11.5672L48.7696 15.9116L48.5277 16.4041C48.3297 16.8089 48.2858 17.0935 48.2748 17.9361C48.2748 18.8334 48.3077 19.0523 48.5607 19.5775C49.0335 20.5624 49.9132 21.3284 51.0019 21.6896C51.1778 21.7552 51.1888 22.1492 51.1888 27.9271V34.0881L50.782 34.2303C49.8583 34.5586 49.0665 35.2699 48.5827 36.211C48.3077 36.7472 48.2748 36.9223 48.2748 37.8525C48.2748 38.6951 48.3187 38.9906 48.5167 39.4283L48.7696 39.9536L44.7119 44.0791C42.4796 46.3443 40.5332 48.3141 40.3683 48.4563L40.0933 48.719L39.3126 48.4673C37.3222 47.8326 35.2329 48.7518 34.4631 50.6121L34.2102 51.2031H28.0411H21.8721L21.5642 50.5355C21.1793 49.6929 20.4645 48.9816 19.6508 48.5986C19.112 48.3469 18.881 48.3031 17.9793 48.3031C17.1326 48.3141 16.8467 48.3579 16.4838 48.5439L16.0439 48.7846L11.6123 44.3746L7.19173 39.9755L7.44465 39.4392C7.82953 38.6185 7.80753 37.1521 7.41166 36.3095C7.24671 35.9703 6.93881 35.4997 6.71888 35.259C6.323 34.8213 5.17936 34.1319 4.84947 34.1319C4.68452 34.1319 4.67352 33.5628 4.67352 27.96V21.7881L5.09139 21.6567C6.22403 21.2956 7.36767 20.0809 7.64259 18.91C7.81853 18.1768 7.73056 17.1263 7.43365 16.4588L7.19173 15.9226L11.5683 11.5672L15.945 7.21186L16.4398 7.45261C16.8467 7.64959 17.1326 7.69336 17.9793 7.7043C18.892 7.7043 19.101 7.67147 19.6508 7.40884C20.4645 7.03677 21.1793 6.31453 21.5752 5.47191L21.8831 4.80439H28.0521H34.2102L34.4631 5.39531ZM5.0584 16.3384C6.16905 17.181 6.12507 18.8553 4.98143 19.6432C4.59655 19.9058 4.4206 19.9606 3.84878 19.9606C3.29896 19.9606 3.09002 19.9058 2.72714 19.6651C1.44055 18.8225 1.55051 16.8746 2.92508 16.1524C3.50789 15.846 4.53057 15.9335 5.0584 16.3384ZM53.0472 16.1852C54.4548 16.8965 54.5208 18.8006 53.1792 19.687C52.5854 20.0809 51.6067 20.07 50.9909 19.6542C49.9462 18.9757 49.7703 17.4874 50.617 16.5791C51.2108 15.9444 52.2555 15.7803 53.0472 16.1852ZM5.0584 36.2548C6.54293 37.3819 5.87215 39.7347 4.01373 39.9098C2.5402 40.0521 1.42955 38.5638 1.96838 37.1521C2.30927 36.2658 2.98006 35.8499 3.96975 35.9046C4.50858 35.9375 4.72851 36.0141 5.0584 36.2548ZM53.0472 36.1016C54.8067 36.988 54.3228 39.68 52.3545 39.8989C51.0239 40.0521 50.0122 39.0781 50.1112 37.7212C50.1662 36.9989 50.551 36.3971 51.1998 36.0797C51.7057 35.8171 52.5194 35.828 53.0472 36.1016ZM18.947 50.3167C19.4529 50.5684 19.6838 50.8201 19.9037 51.3453C20.2666 52.2208 19.9697 53.2385 19.1669 53.7856C18.7821 54.0483 18.6061 54.103 18.0343 54.103C17.4735 54.103 17.2755 54.0483 16.8907 53.7966C16.2639 53.3807 15.956 52.7023 16.0219 51.8925C16.1429 50.5136 17.6934 49.682 18.947 50.3167ZM39.2576 50.4808C40.4672 51.4 40.2803 53.2822 38.9277 53.9388C37.2122 54.7596 35.3648 52.9102 36.2226 51.2249C36.6404 50.4152 37.2342 50.0869 38.1689 50.1306C38.7078 50.1635 38.9277 50.2401 39.2576 50.4808Z" fill="#4275D8"/>
<path d="M21.7718 16.4713C17.1929 17.9943 15.5278 18.5878 15.3964 18.7669C15.2102 18.9909 15.1992 19.5956 15.1992 27.9493V36.8853L15.4512 37.1652C15.6483 37.4004 16.8095 37.8259 21.9909 39.528C25.4525 40.6702 28.3444 41.5996 28.4102 41.5996C28.4869 41.5996 31.3678 40.6702 34.8294 39.528C39.978 37.8259 41.1501 37.4004 41.3582 37.1652L41.5992 36.8853V27.9493C41.5992 19.5956 41.5883 18.9909 41.413 18.7669C41.2596 18.5878 39.6055 17.9943 34.939 16.4601C31.4883 15.3179 28.5088 14.3885 28.3116 14.3997C28.1144 14.4109 25.1786 15.3403 21.7718 16.4713ZM32.9891 17.8039C35.5196 18.6325 37.6009 19.3268 37.6118 19.3492C37.6337 19.3716 35.5634 20.0659 33.022 20.9057L28.3992 22.4399L23.7765 20.9057C21.2351 20.0659 19.1647 19.3716 19.1866 19.3492C19.2195 19.3156 28.2239 16.3146 28.3444 16.3034C28.3773 16.2922 30.4696 16.9752 32.9891 17.8039ZM23.656 22.8542L27.3586 24.0748V31.6558C27.3586 35.8326 27.3147 39.248 27.2709 39.248C27.2271 39.248 24.9157 38.4978 22.1552 37.5795L17.1162 35.9222L17.0834 28.2964L17.0615 20.6818L18.5074 21.1521C19.3071 21.4208 21.6294 22.1823 23.656 22.8542ZM39.6603 35.8886C39.6055 35.9334 37.3051 36.7173 34.5337 37.6243C31.7622 38.5314 29.4289 39.304 29.3632 39.3376C29.2537 39.3712 29.2208 37.8147 29.2208 31.7678V24.142L30.9516 23.5821C31.8937 23.2685 34.2488 22.4959 36.1768 21.8576L39.6822 20.693L39.7151 28.2516C39.726 32.4173 39.7041 35.855 39.6603 35.8886Z" fill="#4275D8"/>
</svg>
