<svg width="58" height="58" viewBox="0 0 58 58" fill="none" xmlns="http://www.w3.org/2000/svg">
<path d="M28.312 0.263481C28.0622 0.399441 26.6091 1.33981 25.0878 2.34816L22.329 4.16092L21.7386 4.1156C19.4226 3.923 14.9723 3.74172 14.7339 3.83236C14.5863 3.88901 14.3479 4.04763 14.223 4.19491C14.0867 4.3422 13.258 5.89438 12.3838 7.63916L10.7944 10.8115L7.55879 12.4317C4.03938 14.1878 3.72149 14.4144 3.7442 15.1508C3.7442 15.3774 3.83502 17.0882 3.9372 18.9576L4.1302 22.3339L2.10937 25.4042C0.962724 27.1377 0.0544871 28.6332 0.0204282 28.8372C-0.0590425 29.3017 -0.0136306 29.381 2.21155 32.7573L4.10749 35.6237L3.91449 39.3965C3.72149 42.8974 3.72149 43.1807 3.90314 43.4526C4.15291 43.8378 4.40267 43.9851 7.79721 45.6845L10.7944 47.1801L12.3838 50.3524C13.9846 53.5474 14.2457 53.9779 14.7225 54.1592C14.9382 54.2385 19.1388 54.0686 21.6251 53.876L22.3176 53.8193L25.2467 55.7454C28.5164 57.898 28.698 58 29.084 58C29.2543 58 30.594 57.1956 32.524 55.9153L35.6914 53.842L39.4266 54.0459C43.0027 54.2498 43.173 54.2498 43.5136 54.0572C43.8088 53.8986 44.1607 53.2755 45.5685 50.5224L47.2715 47.1801L50.5638 45.5259C52.3689 44.6082 53.9356 43.7471 54.0492 43.6112C54.3103 43.294 54.3103 42.6255 54.0832 38.6374L53.9016 35.6464L55.9565 32.5647C57.7616 29.8568 58 29.4376 58 29.0298C58 28.5313 57.8865 28.3273 55.3661 24.5092L53.9356 22.3452L54.14 18.6744C54.3443 15.2188 54.3443 14.9809 54.1627 14.607C53.9924 14.2444 53.6518 14.0518 50.6206 12.4996L47.2715 10.8002L45.5685 7.46922C44.1834 4.7614 43.7974 4.09295 43.525 3.93433C43.1957 3.75305 42.9914 3.75305 39.4379 3.94566L35.7028 4.13826L32.7397 2.18954C31.1048 1.12455 29.663 0.195503 29.5268 0.116196C29.1748 -0.0764122 28.8115 -0.0310936 28.312 0.263481ZM32.1039 4.68209C34.7605 6.41555 35.0216 6.56284 35.4984 6.56284C35.7823 6.56284 37.383 6.48353 39.0746 6.38156C40.7549 6.29092 42.174 6.2456 42.2307 6.30225C42.2761 6.34757 42.9914 7.71847 43.8202 9.33863C44.6489 10.9588 45.3982 12.375 45.5004 12.4996C45.6026 12.6129 47.0671 13.3947 48.7473 14.2331C50.4389 15.0715 51.824 15.7739 51.8353 15.7853C51.858 15.7966 51.7786 17.3828 51.6764 19.2975C51.5402 21.7334 51.5175 22.8664 51.5969 23.0816C51.665 23.2516 52.5506 24.6452 53.561 26.186L55.4115 28.9958L53.4702 31.9529L51.5288 34.9099V35.6124C51.5288 35.9863 51.6083 37.6291 51.6991 39.2379C51.8013 40.8467 51.858 42.1836 51.8467 42.195C51.824 42.2176 50.4389 42.9201 48.7473 43.7585C47.0671 44.5969 45.6026 45.3786 45.5004 45.4919C45.3982 45.6166 44.6376 47.0554 43.8088 48.6983C42.9687 50.3297 42.2307 51.7006 42.1513 51.7346C42.0718 51.7573 40.6413 51.7006 38.9497 51.61C37.2695 51.508 35.6914 51.4287 35.4417 51.4287C35.033 51.4287 34.6243 51.6667 32.1266 53.2981C30.5485 54.3405 29.1975 55.2015 29.1181 55.2355C29.0386 55.2695 27.6308 54.4085 25.996 53.3435L23.0102 51.3834L19.434 51.576C17.4586 51.6893 15.8351 51.7573 15.8237 51.746C15.801 51.7233 15.1199 50.3637 14.2911 48.7096C13.4623 47.0554 12.7017 45.6166 12.5995 45.4919C12.4973 45.3786 11.0442 44.5969 9.35256 43.7585C7.67232 42.9201 6.26456 42.2063 6.24185 42.1836C6.21914 42.161 6.28726 40.5861 6.38944 38.6827C6.50297 36.7793 6.54838 35.1252 6.51432 34.9892C6.46891 34.8646 5.59473 33.4824 4.57297 31.9302C3.5512 30.378 2.71108 29.0638 2.71108 28.9958C2.71108 28.9391 3.53985 27.6249 4.56161 26.084C5.58338 24.5432 6.4462 23.1723 6.50297 23.0477C6.54838 22.923 6.50297 21.2575 6.38944 19.3315C6.28726 17.4168 6.21914 15.8306 6.24185 15.8079C6.26456 15.7853 7.68368 15.0715 9.38662 14.2218C11.941 12.9415 12.5314 12.6016 12.713 12.307C12.8266 12.1031 13.5759 10.6642 14.3592 9.11203C15.1539 7.54853 15.8124 6.26826 15.8237 6.2456C15.8465 6.22294 17.2315 6.29092 18.9231 6.38156C20.6033 6.48353 22.2268 6.56284 22.5447 6.56284C23.0783 6.56284 23.2259 6.48353 25.996 4.64811C27.5854 3.58311 28.9591 2.7447 29.0499 2.75603C29.1408 2.77869 30.5145 3.63976 32.1039 4.68209Z" fill="#4275D8"/>
<path d="M25.7863 10.4428C18.5684 11.7425 12.6244 17.213 10.8435 24.196C10.2538 26.4882 10.0769 29.4539 10.3835 31.5453C11.5511 39.5089 17.3655 45.7357 25.1848 47.4253C26.8713 47.7916 30.0438 47.8743 31.7303 47.6143C34.6552 47.1417 37.014 46.2319 39.4199 44.625C48.3832 38.6582 50.4707 26.3701 43.9959 17.7093C41.248 14.0347 37.3442 11.5534 32.7328 10.5609C30.9991 10.1828 27.5671 10.1237 25.7863 10.4428ZM31.1996 12.8649C38.1226 13.8456 43.4888 18.9027 44.9512 25.8147C45.3168 27.5634 45.3168 30.4228 44.9512 32.1715C43.8898 37.1694 40.8352 41.2103 36.3653 43.5025C27.3077 48.146 16.2333 43.3371 13.391 33.5421C12.872 31.7225 12.7069 30.4346 12.7777 28.4614C12.872 25.9802 13.332 24.066 14.3345 21.9629C17.4009 15.5707 24.2649 11.8724 31.1996 12.8649Z" fill="#4275D8"/>
<path d="M35.2934 24.31C35.0088 24.5546 32.9597 26.2772 30.7513 28.1425L26.7442 31.5266L24.4902 29.4778C22.3956 27.5819 22.2021 27.429 21.7581 27.3781C21.3142 27.3271 21.2345 27.3577 20.8702 27.6838C20.4148 28.0916 20.3465 28.5502 20.6767 28.9885C20.7791 29.1414 22.0541 30.334 23.4884 31.6489C25.1846 33.2084 26.2092 34.0646 26.3913 34.0952C27.0743 34.2073 27.3361 34.0238 31.753 30.2932C36.9668 25.9001 37.3994 25.5229 37.4904 25.1764C37.6839 24.4935 37.1375 23.8819 36.3293 23.8819C35.9081 23.8819 35.7601 23.9431 35.2934 24.31Z" fill="#4275D8"/>
</svg>
