<svg width="20" height="20" viewBox="0 0 20 20" fill="none" xmlns="http://www.w3.org/2000/svg">
<path d="M19.8876 3.03878L18.9992 3.7431H4.81402L4.08269 2.2002H19.8876V3.03878Z" fill="#423E48"/>
<path d="M6.01152 12.5564L5.96922 12.7256V12.7502C5.96922 13.0058 6.18396 13.2002 6.41922 13.2002H17.7992V14.8002H5.99922C5.00968 14.8002 4.19922 13.9897 4.19922 13.0002C4.19922 12.6845 4.28041 12.3888 4.42289 12.1394L5.82381 9.59702L2.12571 1.8002H0.199219V0.200195H3.14223L4.02856 2.08601L7.21846 8.8158L7.40354 9.2002H14.6673L17.4845 4.09658L18.4903 2.26782L19.8876 3.03878L16.1239 9.87403C15.8184 10.4311 15.225 10.8002 14.5492 10.8002H6.98119L6.01152 12.5564Z" fill="#423E48"/>
<path d="M4.20922 18.0002C4.20922 17.0093 5.01098 16.2002 5.99922 16.2002C6.98876 16.2002 7.79922 17.0107 7.79922 18.0002C7.79922 18.9897 6.98876 19.8002 5.99922 19.8002C5.01098 19.8002 4.20922 18.991 4.20922 18.0002Z" fill="#423E48"/>
<path d="M14.2092 18.0002C14.2092 17.0093 15.011 16.2002 15.9992 16.2002C16.9888 16.2002 17.7992 17.0107 17.7992 18.0002C17.7992 18.9897 16.9888 19.8002 15.9992 19.8002C15.011 19.8002 14.2092 18.991 14.2092 18.0002Z" fill="#423E48"/>
</svg>
