<svg width="22" height="19" viewBox="0 0 22 19" fill="none" xmlns="http://www.w3.org/2000/svg">
<path d="M6.125 0.75C3.02246 0.75 0.5 3.30176 0.5 6.375C0.5 7.44727 0.986328 8.37598 1.4375 9.04688C1.88867 9.71777 2.35156 10.1484 2.35156 10.1484L10.4609 18.2812L11 18.8203L11.5391 18.2812L19.6484 10.1484C19.6484 10.1484 21.5 8.5166 21.5 6.375C21.5 3.30176 18.9775 0.75 15.875 0.75C13.2998 0.75 11.6416 2.2998 11 2.95312C10.3584 2.2998 8.7002 0.75 6.125 0.75ZM6.125 2.25C8.36621 2.25 10.4375 4.42969 10.4375 4.42969L11 5.0625L11.5625 4.42969C11.5625 4.42969 13.6338 2.25 15.875 2.25C18.1572 2.25 20 4.12207 20 6.375C20 7.53223 18.5938 9.09375 18.5938 9.09375L11 16.6875L3.40625 9.09375C3.40625 9.09375 3.04297 8.74512 2.67969 8.20312C2.31641 7.66113 2 6.95508 2 6.375C2 4.12207 3.84277 2.25 6.125 2.25Z" fill="#423E48"/>
</svg>
