<svg width="28" height="28" viewBox="0 0 28 28" fill="none" xmlns="http://www.w3.org/2000/svg">
<path opacity="0.2" d="M7.8 0C3.5 0 0 3.5 0 7.8V20.2C0 24.5 3.5 28 7.8 28H20.2C24.5 28 28 24.5 28 20.2V7.8C28 3.5 24.5 0 20.2 0H7.8ZM23.3 3.1C24.2 3.1 24.9 3.8 24.9 4.7C24.9 5.6 24.2 6.3 23.3 6.3C22.4 6.3 21.7 5.6 21.7 4.7C21.7 3.8 22.5 3.1 23.3 3.1ZM14 6.2C18.3 6.2 21.8 9.7 21.8 14C21.8 18.3 18.3 21.8 14 21.8C9.7 21.8 6.2 18.3 6.2 14C6.2 9.7 9.7 6.2 14 6.2ZM14 9.3C11.4 9.3 9.3 11.4 9.3 14C9.3 16.6 11.4 18.7 14 18.7C16.6 18.7 18.7 16.6 18.7 14C18.7 11.4 16.6 9.3 14 9.3Z" fill="#423E48"/>
</svg>
