<svg width="20" height="20" viewBox="0 0 20 20" fill="none" xmlns="http://www.w3.org/2000/svg">
<path fill-rule="evenodd" clip-rule="evenodd" d="M4.16406 7.49935C4.16406 4.27435 6.7724 1.66602 9.9974 1.66602C13.2224 1.66602 15.8307 4.27435 15.8307 7.49935C15.8307 10.9743 12.1474 15.766 10.6391 17.591C10.3057 17.991 9.6974 17.991 9.36406 17.591C7.8474 15.766 4.16406 10.9743 4.16406 7.49935ZM7.91403 7.4993C7.91403 8.6493 8.84737 9.58263 9.99737 9.58263C11.1474 9.58263 12.0807 8.6493 12.0807 7.4993C12.0807 6.3493 11.1474 5.41596 9.99737 5.41596C8.84737 5.41596 7.91403 6.3493 7.91403 7.4993Z" fill="#423E48"/>
</svg>
