<svg width="20" height="20" viewBox="0 0 20 20" fill="none" xmlns="http://www.w3.org/2000/svg">
<path d="M0 20V16.5445C0 13.6126 6.49215 11.7277 9.94764 11.7277C13.4031 11.7277 20 13.5079 20 16.5445V20H0ZM9.94764 13.2984C6.28272 13.2984 1.57068 15.0785 1.57068 16.5445V18.4293H18.4293V16.5445C18.4293 15.1832 13.9267 13.2984 9.94764 13.2984ZM9.94764 9.5288C7.32984 9.5288 5.2356 7.43456 5.2356 4.71204C5.2356 1.98953 7.32984 0 9.94764 0C12.5654 0 14.7644 2.19895 14.7644 4.71204C14.7644 7.43456 12.6702 9.5288 9.94764 9.5288ZM9.94764 1.57068C8.27225 1.57068 6.80628 3.03665 6.80628 4.71204C6.80628 6.38743 8.27225 7.8534 9.94764 7.8534C11.7277 7.8534 13.1937 6.38743 13.1937 4.71204C13.1937 3.03665 11.7277 1.57068 9.94764 1.57068Z" fill="#423E48"/>
</svg>
