<svg width="18" height="15" viewBox="0 0 18 15" fill="none" xmlns="http://www.w3.org/2000/svg">
<path d="M13.2627 5.51633L9.67909 0.331928C9.52364 0.110643 9.26182 0 9 0C8.73818 0 8.47636 0.110643 8.32091 0.339831L4.73727 5.51633H0.818182C0.368182 5.51633 0 5.87197 0 6.30664C0 6.37777 0.00818179 6.44889 0.0327272 6.52002L2.11091 13.8462C2.29909 14.51 2.92909 15 3.68182 15H14.3182C15.0709 15 15.7009 14.51 15.8973 13.8462L17.9755 6.52002L18 6.30664C18 5.87197 17.6318 5.51633 17.1818 5.51633H13.2627ZM6.54545 5.51633L9 2.03899L11.4545 5.51633H6.54545ZM9 11.8388C8.1 11.8388 7.36364 11.1275 7.36364 10.2582C7.36364 9.38883 8.1 8.67756 9 8.67756C9.9 8.67756 10.6364 9.38883 10.6364 10.2582C10.6364 11.1275 9.9 11.8388 9 11.8388Z" fill="#423E48"/>
</svg>
