<svg width="10" height="12" viewBox="0 0 10 12" fill="none" xmlns="http://www.w3.org/2000/svg">
<path d="M8.33333 8.41233C7.91111 8.41233 7.53333 8.58804 7.24445 8.86331L3.28333 6.43275C3.31111 6.29804 3.33333 6.16334 3.33333 6.02278C3.33333 5.88221 3.31111 5.74751 3.28333 5.6128L7.2 3.20567C7.5 3.49851 7.89444 3.68007 8.33333 3.68007C9.25556 3.68007 10 2.89527 10 1.92304C10 0.950822 9.25556 0.166016 8.33333 0.166016C7.41111 0.166016 6.66667 0.950822 6.66667 1.92304C6.66667 2.06361 6.68889 2.19831 6.71667 2.33302L2.8 4.74015C2.5 4.44731 2.10556 4.26575 1.66667 4.26575C0.744444 4.26575 0 5.05055 0 6.02278C0 6.995 0.744444 7.7798 1.66667 7.7798C2.10556 7.7798 2.5 7.59824 2.8 7.30541L6.75556 9.74182C6.72778 9.86481 6.71111 9.99366 6.71111 10.1225C6.71111 11.0654 7.43889 11.8327 8.33333 11.8327C9.22778 11.8327 9.95556 11.0654 9.95556 10.1225C9.95556 9.17957 9.22778 8.41233 8.33333 8.41233Z" fill="black"/>
</svg>
