<svg width="18" height="15" viewBox="0 0 18 15" fill="none" xmlns="http://www.w3.org/2000/svg">
<path d="M1 9.14286C0.723857 9.14286 0.5 8.919 0.5 8.64286V6.35714C0.5 6.081 0.723858 5.85714 1 5.85714H3.23529C3.51144 5.85714 3.73529 6.081 3.73529 6.35714V8.64286C3.73529 8.919 3.51144 9.14286 3.23529 9.14286H1ZM1 14.5C0.723858 14.5 0.5 14.2761 0.5 14V11.7143C0.5 11.4381 0.723858 11.2143 1 11.2143H3.23529C3.51144 11.2143 3.73529 11.4381 3.73529 11.7143V14C3.73529 14.2761 3.51144 14.5 3.23529 14.5H1ZM1 3.78571C0.723857 3.78571 0.5 3.56186 0.5 3.28571V1C0.5 0.723858 0.723858 0.5 1 0.5H3.23529C3.51144 0.5 3.73529 0.723857 3.73529 1V3.28571C3.73529 3.56186 3.51144 3.78571 3.23529 3.78571H1ZM6.29412 9.14286C6.01798 9.14286 5.79412 8.919 5.79412 8.64286V6.35714C5.79412 6.081 6.01798 5.85714 6.29412 5.85714H17C17.2761 5.85714 17.5 6.081 17.5 6.35714V8.64286C17.5 8.919 17.2761 9.14286 17 9.14286H6.29412ZM6.29412 14.5C6.01798 14.5 5.79412 14.2761 5.79412 14V11.7143C5.79412 11.4381 6.01798 11.2143 6.29412 11.2143H17C17.2761 11.2143 17.5 11.4381 17.5 11.7143V14C17.5 14.2761 17.2761 14.5 17 14.5H6.29412ZM5.79412 1C5.79412 0.723858 6.01798 0.5 6.29412 0.5H17C17.2761 0.5 17.5 0.723857 17.5 1V3.28571C17.5 3.56186 17.2761 3.78571 17 3.78571H6.29412C6.01798 3.78571 5.79412 3.56186 5.79412 3.28571V1Z" fill="#423E48" stroke="#423E48"/>
</svg>
