<svg width="18" height="18" viewBox="0 0 18 18" fill="none" xmlns="http://www.w3.org/2000/svg">
<path d="M12.8134 11.6889H12.2814L11.3949 10.9835L11.5722 10.8071C12.5474 9.74891 13.0793 8.33797 13.0793 6.83886C13.0793 3.3997 10.2424 0.666016 6.78499 0.666016C3.32754 0.666016 0.667969 3.48789 0.667969 6.83886C0.667969 10.1898 3.50485 13.0117 6.87364 13.0117C8.29208 13.0117 9.71052 12.4826 10.863 11.5126L10.9517 11.4244L11.7495 12.218V12.7471L16.3595 17.3327L17.3346 16.3627L12.8134 11.6889ZM6.87364 11.7771C4.21407 11.7771 1.99776 9.57254 1.99776 6.83886C1.99776 4.10517 4.21407 1.98877 6.87364 1.98877C9.53322 1.98877 11.8382 4.19335 11.8382 6.83886C11.8382 9.48436 9.62187 11.7771 6.87364 11.7771Z" fill="#423E48"/>
</svg>
