<svg width="20" height="15" viewBox="0 0 20 15" fill="none" xmlns="http://www.w3.org/2000/svg">
<path d="M0 5.92308C0 6.47536 0.447715 6.92308 1 6.92308H4.88235C5.43464 6.92308 5.88235 6.47536 5.88235 5.92308V0.999999C5.88235 0.447715 5.43464 0 4.88235 0H1C0.447715 0 0 0.447715 0 1V5.92308ZM0 14C0 14.5523 0.447715 15 1 15H4.88235C5.43464 15 5.88235 14.5523 5.88235 14V9.07692C5.88235 8.52464 5.43464 8.07692 4.88235 8.07692H1C0.447715 8.07692 0 8.52464 0 9.07692V14ZM7.05882 14C7.05882 14.5523 7.50654 15 8.05882 15H11.9412C12.4935 15 12.9412 14.5523 12.9412 14V9.07692C12.9412 8.52464 12.4935 8.07692 11.9412 8.07692H8.05882C7.50654 8.07692 7.05882 8.52464 7.05882 9.07692V14ZM14.1176 14C14.1176 14.5523 14.5654 15 15.1176 15H19C19.5523 15 20 14.5523 20 14V9.07692C20 8.52464 19.5523 8.07692 19 8.07692H15.1176C14.5654 8.07692 14.1176 8.52464 14.1176 9.07692V14ZM7.05882 5.92308C7.05882 6.47536 7.50654 6.92308 8.05882 6.92308H11.9412C12.4935 6.92308 12.9412 6.47536 12.9412 5.92308V0.999999C12.9412 0.447715 12.4935 0 11.9412 0H8.05882C7.50654 0 7.05882 0.447715 7.05882 1V5.92308ZM15.1176 0C14.5654 0 14.1176 0.447715 14.1176 1V5.92308C14.1176 6.47536 14.5654 6.92308 15.1176 6.92308H19C19.5523 6.92308 20 6.47536 20 5.92308V0.999999C20 0.447715 19.5523 0 19 0H15.1176Z" fill="#423E48"/>
</svg>
