<svg width="28" height="28" viewBox="0 0 28 28" fill="none" xmlns="http://www.w3.org/2000/svg">
<path d="M23.8 0H4.2C1.8804 0 0 1.8804 0 4.2V23.8C0 26.1196 1.8804 28 4.2 28H23.8C26.1196 28 28 26.1196 28 23.8V4.2C28 1.8804 26.1196 0 23.8 0Z" fill="#CCCBCD"/>
<path d="M14.7109 10.1718C14.9356 10.1642 15.1595 10.2029 15.3686 10.2854C15.5777 10.3679 15.7677 10.4925 15.9267 10.6514C16.0856 10.8104 16.2102 11.0003 16.2927 11.2095C16.3752 11.4186 16.4139 11.6425 16.4062 11.8672M14.3281 8.69528C14.8019 8.69476 15.2708 8.79043 15.7065 8.97649C16.1422 9.16255 16.5356 9.43513 16.8629 9.77772C17.1901 10.1203 17.4444 10.5258 17.6103 10.9695C17.7762 11.4133 17.8503 11.8861 17.8281 12.3593M13.8359 7.27341C14.5751 7.25622 15.3097 7.39375 15.9926 7.67717C16.6755 7.96059 17.2917 8.38364 17.8015 8.91918C18.3112 9.45471 18.7034 10.0909 18.9529 10.7869C19.2024 11.483 19.3036 12.2235 19.25 12.9609" stroke="white" stroke-width="0.546875" stroke-linecap="round"/>
<path fill-rule="evenodd" clip-rule="evenodd" d="M5.19531 12.6875C5.19531 7.71094 6.125 4.64844 14 4.64844C21.875 4.64844 22.8047 7.71094 22.8047 12.6875C22.8047 17.6641 21.875 20.7266 14 20.7266L12.5781 20.6719L9.67969 24.1172C9.46094 24.3359 9.24219 24.1719 9.24219 23.9531V20.1797C8.91406 20.1797 7.54688 19.5234 7.16406 19.1406C5.96094 17.8828 5.19531 16.9531 5.19531 12.6875ZM3.55469 12.6875C3.55469 5.79688 6.5625 3.00781 14 3.00781C21.4375 3.00781 24.4453 5.79688 24.4453 12.6875C24.4453 19.5781 21.4375 22.3672 14 22.3672C13.4531 22.3672 13.0156 22.3672 12.25 22.2578L10.1719 24.6094C9.78906 25.0469 8.64062 25.2109 8.64062 23.8984V21.6016C8.3125 21.6016 7.54688 21.2734 6.50781 20.6172C5.46875 19.9062 3.55469 18.2109 3.55469 12.6875ZM15.75 14.9844C16.1146 14.5104 16.5521 14.4375 17.0625 14.7656L19.0312 16.2422C19.3229 16.6068 19.1953 17.1172 18.6484 17.7734C18.1016 18.4297 17.5911 18.7031 17.1172 18.5938C15.1849 18.1562 13.3255 17.0625 11.5391 15.3125C9.7526 13.5625 8.64062 11.6667 8.20312 9.625C8.20312 8.89583 8.65885 8.27604 9.57031 7.76562C10.0443 7.4375 10.4453 7.52865 10.7734 8.03906L12.1406 9.95312C12.3594 10.3906 12.2318 10.7917 11.7578 11.1562C9.625 11.9766 14.5469 17.2812 15.75 14.9844Z" fill="white"/>
</svg>
