<svg width="28" height="28" viewBox="0 0 28 28" fill="none" xmlns="http://www.w3.org/2000/svg">
<path fill-rule="evenodd" clip-rule="evenodd" d="M6 0C2.68629 0 0 2.68629 0 6V22C0 25.3137 2.68629 28 6 28H22C25.3137 28 28 25.3137 28 22V6C28 2.68629 25.3137 0 22 0H6ZM4.53445 8.90918H6.62299C7.15676 8.90918 7.35757 9.1452 7.55773 9.72951C8.57921 12.7357 10.3015 15.3629 11.0095 15.3629C11.275 15.3629 11.3968 15.2393 11.3968 14.5581V11.4508C11.3489 10.5663 11.0431 10.1838 10.8165 9.90045C10.6766 9.72549 10.567 9.58835 10.567 9.39419C10.567 9.15816 10.7666 8.90918 11.0984 8.90918H14.3805C14.8231 8.90918 14.9772 9.14828 14.9772 9.68483V13.8651C14.9772 14.3121 15.1693 14.4686 15.3021 14.4686C15.5676 14.4686 15.7889 14.3121 16.2757 13.8203C17.7803 12.1214 18.8424 9.5059 18.8424 9.5059C18.9752 9.19301 19.22 8.90918 19.751 8.90918H21.8396C22.4712 8.90918 22.6039 9.23768 22.4712 9.68483C22.2056 10.9143 19.6611 14.5357 19.6611 14.5357C19.4398 14.8933 19.3513 15.0722 19.6611 15.4746C19.7701 15.6289 20.0029 15.8592 20.2692 16.1228C20.5431 16.3938 20.8525 16.7 21.0993 16.9947C21.9965 18.0143 22.6726 18.8746 22.8609 19.4674C23.033 20.0623 22.7347 20.3637 22.1379 20.3637H20.0494C19.49 20.3637 19.2083 20.0472 18.5997 19.3631C18.3417 19.0732 18.0249 18.7172 17.6033 18.2912C16.3642 17.0841 15.8332 16.9276 15.5233 16.9276C15.103 16.9276 14.9772 17.0479 14.9772 17.6508V19.5431C14.9772 20.0623 14.813 20.3637 13.4854 20.3637C11.2727 20.3637 8.84111 19.0065 7.11524 16.5029C4.52643 12.8368 3.81836 10.0648 3.81836 9.5059C3.81836 9.19301 3.93771 8.90918 4.53445 8.90918Z" fill="#4275D8"/>
</svg>
