<svg width="28" height="28" viewBox="0 0 28 28" fill="none" xmlns="http://www.w3.org/2000/svg">
    <path d="M23.8 0H4.2C1.8804 0 0 1.8804 0 4.2V23.8C0 26.1196 1.8804 28 4.2 28H23.8C26.1196 28 28 26.1196 28 23.8V4.2C28 1.8804 26.1196 0 23.8 0Z" fill="#CCCBCD"/>
    <path d="M5.30437 13.5267C5.34361 13.5071 5.38287 13.4885 5.42113 13.4708C6.08623 13.1627 6.76016 12.8742 7.43311 12.5857C7.46941 12.5857 7.53021 12.5435 7.56455 12.5298C7.61654 12.5072 7.66854 12.4856 7.72053 12.4631C7.82059 12.4199 7.92065 12.3777 8.01973 12.3345C8.21985 12.2491 8.41898 12.1638 8.61909 12.0784L9.81686 11.5652C10.6154 11.2237 11.4149 10.8813 12.2134 10.5398C13.0119 10.1983 13.8114 9.85583 14.6099 9.51435C15.4084 9.17287 16.2079 8.83041 17.0064 8.48893C17.805 8.14745 18.6045 7.80499 19.403 7.46351C19.5805 7.38697 19.7728 7.27314 19.9631 7.23977C20.123 7.21132 20.279 7.15637 20.4399 7.12595C20.7449 7.06806 21.0814 7.04451 21.3738 7.17109C21.4748 7.21525 21.568 7.27707 21.6455 7.35459C22.0163 7.72158 21.9643 8.32407 21.8858 8.84022C21.3394 12.4375 20.793 16.0358 20.2456 19.6332C20.1711 20.1267 20.0691 20.6684 19.6796 20.9804C19.35 21.2444 18.8811 21.2738 18.474 21.162C18.0669 21.0491 17.7078 20.8126 17.3557 20.5801C15.895 19.6125 14.4334 18.645 12.9727 17.6775C12.6254 17.4479 12.2389 17.1476 12.2428 16.7306C12.2448 16.4794 12.3949 16.2556 12.5479 16.0564C13.8173 14.4001 15.6488 13.2618 17.0114 11.682C17.2036 11.4592 17.3547 11.0569 17.0908 10.9284C16.9339 10.8518 16.7533 10.9558 16.6101 11.0549C14.8091 12.306 13.009 13.5581 11.2079 14.8093C10.6203 15.2175 10.0042 15.6374 9.29598 15.7375C8.66227 15.8278 8.02464 15.6512 7.41153 15.4706C6.8975 15.3195 6.38443 15.1645 5.87334 15.0045C5.60161 14.9201 5.32105 14.8289 5.11112 14.6375C4.90119 14.4462 4.78055 14.1243 4.9071 13.8692C4.98655 13.7093 5.14057 13.6082 5.30243 13.5258L5.30437 13.5267Z" fill="#FEFFFC"/>
</svg>