<svg width="32" height="32" viewBox="0 0 32 32" fill="none" xmlns="http://www.w3.org/2000/svg">
<path d="M16 0L19.0096 3.78944L23.4356 1.8327L24.3394 6.58673L29.1677 6.91096L27.7588 11.5405L31.8833 14.0714L28.4843 17.5159L30.9603 21.6737L26.3498 23.144L26.61 27.9762L21.8444 27.1355L19.8291 31.5351L16 28.576L12.1709 31.5351L10.1556 27.1355L5.39004 27.9762L5.65016 23.144L1.03974 21.6737L3.51569 17.5159L0.116658 14.0714L4.24124 11.5405L2.83226 6.91096L7.66057 6.58673L8.56443 1.8327L12.9904 3.78944L16 0Z" fill="#E30044"/>
<path d="M12.7008 21C12.5048 21 12.4068 20.9067 12.4068 20.72C12.4068 20.664 12.4255 20.6127 12.4628 20.566L19.3788 11.466C19.4441 11.382 19.5048 11.3167 19.5608 11.27C19.6261 11.2233 19.7195 11.2 19.8408 11.2H20.3028C20.4988 11.2 20.5968 11.2933 20.5968 11.48C20.5968 11.536 20.5781 11.5873 20.5408 11.634L13.6388 20.734C13.5735 20.818 13.5081 20.8833 13.4428 20.93C13.3868 20.9767 13.2935 21 13.1628 21H12.7008ZM19.1128 21.084C18.4968 21.084 18.0161 20.9113 17.6708 20.566C17.3255 20.2207 17.1341 19.768 17.0968 19.208C17.0875 18.9653 17.0828 18.76 17.0828 18.592C17.0828 18.4147 17.0875 18.1953 17.0968 17.934C17.1248 17.374 17.3068 16.9213 17.6428 16.576C17.9788 16.2213 18.4688 16.044 19.1128 16.044C19.7661 16.044 20.2561 16.2213 20.5828 16.576C20.9188 16.9213 21.1055 17.374 21.1428 17.934C21.1615 18.1953 21.1708 18.4147 21.1708 18.592C21.1708 18.76 21.1615 18.9653 21.1428 19.208C21.1055 19.768 20.9095 20.2207 20.5548 20.566C20.2095 20.9113 19.7288 21.084 19.1128 21.084ZM19.1128 20.16C19.3555 20.16 19.5468 20.1087 19.6868 20.006C19.8361 19.9033 19.9435 19.7773 20.0088 19.628C20.0741 19.4693 20.1115 19.3107 20.1208 19.152C20.1395 18.9 20.1488 18.704 20.1488 18.564C20.1488 18.4147 20.1395 18.2233 20.1208 17.99C20.1115 17.738 20.0321 17.5047 19.8828 17.29C19.7335 17.0753 19.4768 16.968 19.1128 16.968C18.7581 16.968 18.5061 17.0753 18.3568 17.29C18.2168 17.5047 18.1375 17.738 18.1188 17.99C18.1095 18.2233 18.1048 18.4147 18.1048 18.564C18.1048 18.704 18.1095 18.9 18.1188 19.152C18.1375 19.3107 18.1748 19.4693 18.2308 19.628C18.2961 19.7773 18.3988 19.9033 18.5388 20.006C18.6881 20.1087 18.8795 20.16 19.1128 20.16ZM13.8768 16.114C13.2608 16.114 12.7801 15.9507 12.4348 15.624C12.0895 15.2973 11.8981 14.854 11.8608 14.294C11.8515 14.0513 11.8468 13.846 11.8468 13.678C11.8468 13.5007 11.8515 13.2813 11.8608 13.02C11.8888 12.46 12.0708 12.0073 12.4068 11.662C12.7428 11.3073 13.2328 11.13 13.8768 11.13C14.5301 11.13 15.0201 11.3073 15.3468 11.662C15.6828 12.0073 15.8648 12.46 15.8928 13.02C15.9115 13.2813 15.9208 13.5007 15.9208 13.678C15.9208 13.846 15.9115 14.0513 15.8928 14.294C15.8648 14.854 15.6735 15.2973 15.3188 15.624C14.9735 15.9507 14.4928 16.114 13.8768 16.114ZM13.8768 15.246C14.1195 15.246 14.3108 15.1947 14.4508 15.092C14.6001 14.9893 14.7075 14.8633 14.7728 14.714C14.8381 14.5553 14.8755 14.3967 14.8848 14.238C14.9035 13.986 14.9128 13.79 14.9128 13.65C14.9128 13.5007 14.9035 13.3093 14.8848 13.076C14.8755 12.824 14.7915 12.5907 14.6328 12.376C14.4835 12.1613 14.2315 12.054 13.8768 12.054C13.5221 12.054 13.2701 12.1613 13.1208 12.376C12.9808 12.5907 12.9015 12.824 12.8828 13.076C12.8735 13.3093 12.8688 13.5007 12.8688 13.65C12.8688 13.79 12.8735 13.986 12.8828 14.238C12.9015 14.3967 12.9388 14.5553 12.9948 14.714C13.0601 14.8633 13.1628 14.9893 13.3028 15.092C13.4428 15.1947 13.6341 15.246 13.8768 15.246Z" fill="white"/>
</svg>
